<?xml version="1.0" encoding="UTF-8"?>
<svg width="1200px" height="307px" viewBox="0 0 1200 307" version="1.1" xmlns="http://www.w3.org/2000/svg" xmlns:xlink="http://www.w3.org/1999/xlink">
    <!-- Generator: Sketch 63.1 (92452) - https://sketch.com -->
    <title>image-background-subscribe-home-page</title>
    <desc>Created with Sketch.</desc>
    <defs>
        <polygon id="path-1" points="0.932341463 0.5691274 37.7031478 0.5691274 37.7031478 35.062239 0.932341463 35.062239"></polygon>
        <polygon id="path-3" points="0.932341463 0.00773694949 36.8958146 0.00773694949 36.8958146 18.0004291 0.932341463 18.0004291"></polygon>
        <polygon id="path-5" points="0.932341463 0.409307844 4.0386878 0.409307844 4.0386878 7.99794331 0.932341463 7.99794331"></polygon>
    </defs>
    <g id="Assets" stroke="none" stroke-width="1" fill="none" fill-rule="evenodd">
        <g transform="translate(-206.000000, -1003.000000)" id="image-background-subscribe-home-page">
            <g transform="translate(207.000000, 1004.000000)">
                <rect id="Rectangle" fill-rule="nonzero" x="936" y="13" width="384" height="269"></rect>
                <g id="Image" opacity="0.349999994">
                    <g id="Group-3" transform="translate(113.000000, 177.000000)">
                        <polyline id="Fill-1" fill="#E5EEFD" points="0.166111111 33.1795167 0.166111111 0.8844 29.2172222 0.8844 29.2172222 66.0463667 0.166111111 66.0463667 0.166111111 48.2333"></polyline>
                        <path d="M29.2172222,-0.8201 C30.1090458,-0.8201 30.8408989,-0.135184962 30.9154657,0.737329215 L30.9217222,0.8844 L30.9217222,66.0463667 C30.9217222,66.9381903 30.2368072,67.6700434 29.364293,67.7446101 L29.2172222,67.7508667 L0.166111111,67.7508667 C-0.725712489,67.7508667 -1.45756561,67.0659516 -1.53213236,66.1934375 L-1.53838889,66.0463667 L-1.53838889,48.2333 C-1.53838889,47.2919306 -0.775258245,46.5288 0.166111111,46.5288 C1.05793471,46.5288 1.78978783,47.213715 1.86435458,48.0862292 L1.87061111,48.2333 L1.87,64.341 L27.512,64.341 L27.512,2.588 L1.87,2.588 L1.87061111,33.1795167 C1.87061111,34.0713403 1.18569607,34.8031934 0.313181896,34.8777601 L0.166111111,34.8840167 C-0.725712489,34.8840167 -1.45756561,34.1991016 -1.53213236,33.3265875 L-1.53838889,33.1795167 L-1.53838889,0.8844 C-1.53838889,-0.0074236005 -0.853473851,-0.739276722 0.0190403261,-0.813843468 L0.166111111,-0.8201 L29.2172222,-0.8201 Z" id="Stroke-2" fill="#717791" fill-rule="nonzero"></path>
                    </g>
                    <g id="Group-145">
                        <polygon id="Fill-4" fill="#3F72BA" opacity="0.200000003" points="142.030113 177.681867 142.030113 194.01867 112.857566 187.562275 112.857566 177.685223"></polygon>
                        <g id="Group-9" transform="translate(257.739550, 17.903346)">
                            <path d="M11.4103865,7.86180669 L0.46593955,37.1192305 C-0.113137621,38.6723457 0.671238585,40.4044944 2.2199074,40.9874721 L57.4241486,61.7531152 C58.9717016,62.3360929 60.6977756,61.5505836 61.2790842,59.9985874 C61.2790842,59.9974684 61.2790842,59.9963494 61.2802,59.9952305 L74.1638302,25.5480743 C74.7451389,23.9960781 73.9618785,22.2650483 72.4143254,21.6820706 C72.4132096,21.6820706 72.4120939,21.6809517 72.4109781,21.6809517 L17.2078527,0.91530855 C16.7905601,0.756416357 16.3431421,0.694873606 15.8979556,0.734037175" id="Fill-6" fill="#FFFFFF"></path>
                            <path d="M15.8103229,-0.262115679 C16.3212966,-0.307066626 16.8343866,-0.252678959 17.3197194,-0.103266028 L17.5599343,-0.020660759 L72.763,20.745 L72.834,20.769 L72.851,20.78 L72.9573495,20.8235927 C74.8319599,21.6405607 75.7879871,23.7531013 75.1677643,25.7038992 L75.1004635,25.8983859 L62.217,60.342 C61.4646629,62.3540885 59.279629,63.400513 57.2663196,62.7566931 L57.0720732,62.6890869 L1.8676044,41.9233581 C-0.13242856,41.1704698 -1.17623784,38.9818655 -0.537740572,36.9635979 L-0.470674404,36.7688674 L10.4737725,7.51144359 C10.6672727,6.99416599 11.243472,6.73169254 11.7607496,6.92519274 C12.2410788,7.10487149 12.5017044,7.61453056 12.3815589,8.10058367 L12.3470004,8.21216979 L1.40292974,37.4685862 C1.03441536,38.456961 1.49241297,39.5532312 2.42809191,39.9908875 L2.57198276,40.0515005 L57.776674,60.817313 C58.757283,61.1867176 59.8459976,60.7300631 60.28218,59.7920915 L60.3426183,59.6478289 L60.347,59.645 L73.2273643,25.1973159 C73.5969258,24.2106487 73.1404186,23.1159622 72.2055712,22.6784718 L72.062,22.617 L71.9966733,22.5962921 L71.9811597,22.5870821 L16.8520069,1.84985321 C16.6318356,1.76601877 16.3985303,1.72309967 16.1627352,1.72259367 L15.9855883,1.73019003 C15.4354283,1.77858824 14.950201,1.37182992 14.9018028,0.821669889 C14.8534046,0.271509859 15.2601629,-0.213717467 15.8103229,-0.262115679 Z" id="Stroke-8" fill="#717791" fill-rule="nonzero"></path>
                        </g>
                        <path d="M272.534173,17.8950916 C272.970567,17.6257198 273.533007,17.7322057 273.843393,18.1250705 L273.910375,18.2207745 L291.591753,46.8655676 C293.208286,49.5748226 296.428389,50.845639 299.448451,49.9896257 L331.35584,40.1705763 C331.883691,40.0081206 332.443295,40.3043319 332.605751,40.8321828 C332.756602,41.3223301 332.511971,41.8398564 332.053627,42.0413591 L331.944144,42.0820936 L300.302104,51.8203912 C296.425072,53.077022 292.205373,51.5464901 290.027368,48.1384817 L272.20849,19.2712932 C271.918398,18.8013307 272.064211,18.1851843 272.534173,17.8950916 Z" id="Stroke-10" fill="#717791" fill-rule="nonzero"></path>
                        <path d="M300.890691,50.5008116 C301.370392,50.3194621 301.902266,50.5310943 302.132168,50.9758723 L302.179701,51.0825794 L308.577444,68.0057169 C308.772743,68.5223179 308.512277,69.0994272 307.995676,69.2947267 C307.515975,69.4760762 306.984101,69.264444 306.754199,68.8196659 L306.706666,68.7129589 L300.308923,51.7898214 C300.113624,51.2732204 300.37409,50.6961111 300.890691,50.5008116 Z" id="Stroke-12" fill="#717791" fill-rule="nonzero"></path>
                        <path d="M283.919038,48.4692697 C284.40583,48.2084017 285.011928,48.3915493 285.272796,48.8783412 C285.515031,49.3303622 285.374415,49.8852544 284.963338,50.171084 L284.863725,50.2320991 L273.611329,56.2621697 C273.124537,56.5230377 272.518439,56.3398901 272.257571,55.8530983 C272.015337,55.4010772 272.155952,54.846185 272.567029,54.5603554 L272.666643,54.4993403 L283.919038,48.4692697 Z" id="Stroke-14" fill="#717791" fill-rule="nonzero"></path>
                        <g id="Group-2" transform="translate(242.000000, 99.000000)">
                            <g id="Group-19" transform="translate(0.118971, 0.587361)">
                                <path d="M2.07798328,25.2100368 L11.4759929,47.724613 C11.9769672,48.9185424 13.3471151,49.4813788 14.5387421,48.982323 L57.0189061,31.1472338 C58.2105331,30.6459401 58.7717582,29.2729773 58.2741312,28.077929 L47.2080669,1.56978773 C46.7070926,0.375858364 45.3380605,-0.186978067 44.1464334,0.312077695 L1.66626945,18.1471669 C1.34381608,18.280323 1.05595113,18.4862115 0.823873955,18.748048" id="Fill-16" fill="#FFFFFF"></path>
                                <path d="M43.7601405,-0.610298447 C45.4026762,-1.29819569 47.2812977,-0.573269543 48.0525485,1.01148883 L48.130884,1.18454935 L59.1972931,27.6935175 C59.8821202,29.3381258 59.1597019,31.2193172 57.5786736,31.9909041 L57.4060172,32.0692669 L14.9250351,49.9046992 C13.2824682,50.5926094 11.4028227,49.8676405 10.6315018,48.2828804 L10.5531626,48.1098198 L1.155153,25.5952436 C0.942409161,25.0855785 1.18311139,24.4999504 1.69277648,24.2872065 C2.16603692,24.0896587 2.70479612,24.2830924 2.94968175,24.7198001 L3.00081356,24.82483 L12.3981062,47.3376931 C12.6677634,47.9803441 13.3744193,48.3038047 14.0228648,48.1067094 L14.151631,48.06029 L56.6311409,30.2254757 C57.2718288,29.955951 57.5953089,29.2459388 57.3978188,28.5928737 L57.3513141,28.4631674 L46.2859536,1.95670765 C46.0162261,1.31388924 45.3104553,0.990640955 44.6622679,1.1877017 L44.5335445,1.23411078 L2.04795338,19.0714598 C1.91229472,19.1274797 1.78681836,19.2068405 1.67684154,19.3058816 L1.57222816,19.4113473 C1.20589806,19.8246519 0.573879252,19.8627323 0.160574637,19.4964022 C-0.252729977,19.1300721 -0.290810347,18.4980533 0.0755197507,18.0847486 C0.361017315,17.7626417 0.705473665,17.4998689 1.08599706,17.3124749 L1.27915837,17.2251338 L43.7601405,-0.610298447 Z" id="Stroke-18" fill="#717791" fill-rule="nonzero"></path>
                            </g>
                            <path d="M45.0725993,0.476334093 C45.3453299,-0.0039121684 45.9557382,-0.17213686 46.4359845,0.100593728 C46.8819274,0.353843559 47.0588314,0.898254311 46.8634648,1.35924722 L46.8117248,1.46397892 L34.0189306,23.9903563 C32.4435734,26.8617158 29.1464571,28.3018501 26.0056619,27.531323 L0.413687988,20.6719063 C-0.119763022,20.5289082 -0.436287623,19.9805378 -0.293289494,19.4470868 C-0.160505518,18.9517394 0.321808609,18.6434357 0.817143898,18.716412 L0.931530018,18.7401093 L26.2838631,25.5362345 C28.5408196,26.1781317 30.9360673,25.225413 32.1547528,23.2195991 L32.2726507,23.0155274 L45.0725993,0.476334093 Z" id="Stroke-20" fill="#717791" fill-rule="nonzero"></path>
                            <path d="M33.2553651,22.7213858 C33.4803651,22.2605435 34.0127083,22.0500946 34.4849683,22.2163867 L34.5927176,22.2615071 L47.2665857,28.449351 C47.7628774,28.6916586 47.9687721,29.2904117 47.7264645,29.7867034 C47.5014645,30.2475457 46.9691213,30.4579947 46.4968613,30.2917025 L46.389112,30.2465821 L33.7152439,24.0587383 C33.2189522,23.8164306 33.0130574,23.2176775 33.2553651,22.7213858 Z" id="Stroke-22" fill="#717791" fill-rule="nonzero"></path>
                            <path d="M22.5093398,30.7056831 C22.6851101,30.1821153 23.2520357,29.9001698 23.7756035,30.0759402 C24.2617736,30.2391555 24.5396061,30.7396425 24.4360844,31.2295055 L24.4053464,31.3422039 L21.2254429,40.8141928 C21.0496725,41.3377605 20.4827469,41.619706 19.9591791,41.4439357 C19.4730091,41.2807203 19.1951765,40.7802334 19.2986982,40.2903703 L19.3294362,40.1776719 L22.5093398,30.7056831 Z" id="Stroke-24" fill="#717791" fill-rule="nonzero"></path>
                        </g>
                        <g id="Group-30" transform="translate(153.974277, 51.472119)" fill="#C9D7ED" fill-rule="nonzero">
                            <path d="M2.79467028,-1.22663984 C3.58617945,-1.34383136 4.32587478,-0.834068566 4.51015216,-0.071059919 L4.53680361,0.0661414502 L5.44502869,6.20027528 C5.56911383,7.03834381 4.99031593,7.81832347 4.1522474,7.94240861 C3.36073824,8.05960013 2.62104291,7.54983734 2.43676552,6.78682869 L2.41011407,6.64962732 L1.50188899,0.515493494 C1.37780385,-0.322575036 1.95660175,-1.1025547 2.79467028,-1.22663984 Z" id="Stroke-26"></path>
                            <path d="M6.30524707,1.38519842 C7.14321194,1.26041516 7.9236735,1.83856309 8.04845675,2.67652796 C8.16630761,3.46793922 7.6571612,4.20805896 6.89430633,4.39297191 L6.75712721,4.41973764 L0.640554864,5.33057036 C-0.197410006,5.45535361 -0.977871567,4.87720569 -1.10265482,4.03924082 C-1.22050568,3.24782955 -0.711359269,2.50770982 0.051495599,2.32279687 L0.188674718,2.29603113 L6.30524707,1.38519842 Z" id="Stroke-28"></path>
                        </g>
                        <g id="Group-35" transform="translate(304.601286, 146.583643)" fill="#C9D7ED" fill-rule="nonzero">
                            <path d="M1.20714392,-0.501812651 C1.86936912,-0.945947182 2.75244755,-0.805675176 3.2474679,-0.201028005 L3.335588,-0.0822440685 L7.89233398,6.71207563 C8.36422692,7.4156899 8.17637967,8.36862678 7.4727654,8.84051971 C6.81054021,9.28465424 5.92746177,9.14438224 5.43244142,8.53973507 L5.34432132,8.42095113 L0.78757534,1.62663143 C0.315682402,0.923017161 0.503529655,-0.0299197131 1.20714392,-0.501812651 Z" id="Stroke-31"></path>
                            <path d="M6.87079833,0.612817972 C7.57315705,0.139058313 8.52658937,0.324374465 9.00034903,1.02673318 C9.44624048,1.68777668 9.3083139,2.57122448 8.70498335,3.06784868 L8.58643382,3.15628389 L1.81156566,7.72611288 C1.10920694,8.19987254 0.155774612,8.01455639 -0.317985047,7.31219767 C-0.763876491,6.65115417 -0.625949916,5.76770637 -0.0226193589,5.27108218 L0.0959301637,5.18264697 L6.87079833,0.612817972 Z" id="Stroke-33"></path>
                        </g>
                        <path d="M144.044832,22.3709528 C142.475933,22.3709528 141.205599,23.645462 141.205599,25.2155197 C141.205599,26.7855774 142.475933,28.0600866 144.044832,28.0600866 C145.61291,28.0600866 146.884066,26.7852817 146.884066,25.2155197 C146.884066,23.6457577 145.61291,22.3709528 144.044832,22.3709528 Z M144.044832,24.3339528 C144.527513,24.3339528 144.921066,24.7286348 144.921066,25.2155197 C144.921066,25.7024046 144.527513,26.0970866 144.044832,26.0970866 C143.561512,26.0970866 143.168599,25.7028819 143.168599,25.2155197 C143.168599,24.7281575 143.561512,24.3339528 144.044832,24.3339528 Z" id="Stroke-36" fill="#9FC3FD" fill-rule="nonzero"></path>
                        <path d="M222.592243,62.6392699 C220.677964,62.6392699 219.125956,64.195252 219.125956,66.1126918 C219.125956,68.0301317 220.677964,69.5861138 222.592243,69.5861138 C224.507397,69.5861138 226.059647,68.0303726 226.059647,66.1126918 C226.059647,64.195011 224.507397,62.6392699 222.592243,62.6392699 Z M222.592243,64.6022699 C223.422274,64.6022699 224.096647,65.2781599 224.096647,66.1126918 C224.096647,66.9472238 223.422274,67.6231138 222.592243,67.6231138 C221.763224,67.6231138 221.088956,66.9471187 221.088956,66.1126918 C221.088956,65.278265 221.763224,64.6022699 222.592243,64.6022699 Z" id="Stroke-38" fill="#9FC3FD" fill-rule="nonzero"></path>
                        <g id="Group-44" transform="translate(234.308682, 21.260223)" fill="#C9D7ED" fill-rule="nonzero">
                            <path d="M6.32396176,-0.133934694 C6.63035565,-0.699081626 7.33687909,-0.908842411 7.90202602,-0.602448521 C8.42949649,-0.31648089 8.64738614,0.318044032 8.4249842,0.860861774 L8.37053984,0.975615735 L3.3250929,10.2819986 C3.01869901,10.8471456 2.31217558,11.0569064 1.74702864,10.7505125 C1.21955817,10.4645448 1.00166853,9.83001991 1.22407047,9.28720217 L1.27851482,9.17244821 L6.32396176,-0.133934694 Z" id="Stroke-40"></path>
                            <path d="M-0.83724178,1.98606314 C-0.549956773,1.45930901 0.0851107226,1.24300587 0.627370937,1.46676374 L0.74198847,1.52149472 L10.021728,6.58254676 C10.5861074,6.89035213 10.7941018,7.59739759 10.4862964,8.16177701 C10.1990114,8.68853113 9.56394394,8.90483428 9.02168373,8.68107641 L8.90706619,8.62634543 L-0.372673358,3.56529339 C-0.937052777,3.25748802 -1.14504714,2.55044256 -0.83724178,1.98606314 Z" id="Stroke-42"></path>
                        </g>
                        <path d="M187.722649,43.5573268 C185.900803,43.5573268 184.425324,45.0370422 184.425324,46.8607766 C184.425324,48.684511 185.900803,50.1642264 187.722649,50.1642264 C189.545319,50.1642264 191.019973,48.6848037 191.019973,46.8607766 C191.019973,45.0367494 189.545319,43.5573268 187.722649,43.5573268 Z M187.722649,45.8853268 C188.257915,45.8853268 188.691973,46.3207889 188.691973,46.8607766 C188.691973,47.4007643 188.257915,47.8362264 187.722649,47.8362264 C187.188018,47.8362264 186.753324,47.4002838 186.753324,46.8607766 C186.753324,46.3212693 187.188018,45.8853268 187.722649,45.8853268 Z" id="Stroke-45" fill="#C9D7ED" fill-rule="nonzero"></path>
                        <path d="M333.797375,92.741284 C332.076439,92.741284 330.68255,94.1391745 330.68255,95.8622338 C330.68255,97.5852932 332.076439,98.9831836 333.797375,98.9831836 C335.519122,98.9831836 336.9122,97.5856007 336.9122,95.8622338 C336.9122,94.138867 335.519122,92.741284 333.797375,92.741284 Z M333.797375,94.704284 C334.433566,94.704284 334.9492,95.2215858 334.9492,95.8622338 C334.9492,96.5028818 334.433566,97.0201836 333.797375,97.0201836 C333.161836,97.0201836 332.64555,96.5024161 332.64555,95.8622338 C332.64555,95.2220516 333.161836,94.704284 333.797375,94.704284 Z" id="Stroke-47" fill="#9FC3FD" fill-rule="nonzero"></path>
                        <path d="M206.753758,-0.383080669 C205.032011,-0.383080669 203.638933,1.0145023 203.638933,2.73786914 C203.638933,4.46123599 205.032011,5.85881896 206.753758,5.85881896 C208.474694,5.85881896 209.868582,4.46092851 209.868582,2.73786914 C209.868582,1.01480978 208.474694,-0.383080669 206.753758,-0.383080669 Z M206.753758,1.57991933 C207.389297,1.57991933 207.905582,2.09768688 207.905582,2.73786914 C207.905582,3.37805141 207.389297,3.89581896 206.753758,3.89581896 C206.117567,3.89581896 205.601933,3.37851713 205.601933,2.73786914 C205.601933,2.09722115 206.117567,1.57991933 206.753758,1.57991933 Z" id="Stroke-49" fill="#9FC3FD" fill-rule="nonzero"></path>
                        <path d="M331.195322,145.134642 C329.474439,145.134642 328.081613,146.532477 328.081613,148.255592 C328.081613,149.978707 329.474439,151.376542 331.195322,151.376542 C332.917068,151.376542 334.310146,149.978959 334.310146,148.255592 C334.310146,146.532225 332.917068,145.134642 331.195322,145.134642 Z M331.195322,147.097642 C331.831512,147.097642 332.347146,147.614944 332.347146,148.255592 C332.347146,148.89624 331.831512,149.413542 331.195322,149.413542 C330.560154,149.413542 330.044613,148.896146 330.044613,148.255592 C330.044613,147.615038 330.560154,147.097642 331.195322,147.097642 Z" id="Stroke-51" fill="#9FC3FD" fill-rule="nonzero"></path>
                        <path d="M57.2612737,115.156647 L52.9310261,118.939848 C52.6244648,119.207681 52.5924512,119.673082 52.8594516,119.980369 L56.6318214,124.32193 C56.899848,124.630398 57.3674286,124.662561 57.6751681,124.393699 L62.0054157,120.610498 C62.311977,120.342665 62.3439906,119.877264 62.0769902,119.569978 L58.3046204,115.228416 C58.0365938,114.919949 57.5690132,114.887785 57.2612737,115.156647 Z M57.675,116.756 L60.479,119.982 L57.26,122.794 L54.457,119.567 L57.675,116.756 Z" id="Stroke-53" fill="#9FC3FD" fill-rule="nonzero"></path>
                        <path d="M294.508975,4.94275992 L292.161425,8.12731754 C291.919814,8.45507419 291.989082,8.91655281 292.316271,9.1589322 L295.492827,11.5121032 C295.821156,11.7553269 296.284586,11.6857121 296.526964,11.3567586 L298.873398,8.17220102 C299.114867,7.84448121 299.045609,7.38316177 298.718552,7.14079521 L295.543112,4.78762421 C295.214837,4.54435546 294.751418,4.61387524 294.508975,4.94275992 Z M295.258,6.415 L297.247,7.889 L295.776,9.884 L293.787,8.41 L295.258,6.415 Z" id="Stroke-55" fill="#9FC3FD" fill-rule="nonzero"></path>
                        <path d="M252.866933,167.218368 C252.81784,167.931145 252.78102,168.643922 252.748663,169.356699" id="Fill-57" fill="#93B9F4"></path>
                        <path d="M306.670567,247.268814 L306.705155,247.179298 C306.7721,247.335952 306.794415,247.414279 306.670567,247.268814 L306.670567,247.268814 Z M338.453981,280.861086 L338.453981,280.033056 L336.22247,280.033056 L322.144981,280.095718 L324.218055,271.46071 C322.94721,265.519038 321.317091,259.756398 317.695348,259.935432 L317.695348,259.857104 C317.680843,253.45442 313.174306,247.948023 306.916033,246.685837 L307.106827,246.228183 C307.18493,246.082718 307.251875,245.937253 307.329978,245.791788 L309.76121,238.529744 C311.544187,229.595974 309.256888,220.329874 303.525251,213.262528 L299.530846,209.190636 C287.572177,199.095387 269.927618,199.744383 258.738821,210.690041 C257.377599,210.253647 256.005219,209.862012 254.610525,209.503945 C252.69812,207.951948 250.319329,207.092588 247.860203,207.064614 C246.555885,195.66242 236.282007,187.479472 224.913573,188.787536 C214.450017,189.991536 206.552698,198.874952 206.553814,209.436807 C206.552698,211.069368 206.747956,212.696335 207.135123,214.2819 C206.810438,214.381487 206.498026,214.494502 206.186731,214.595209 C198.997917,211.270781 190.464618,213.708993 186.103129,220.335469 C185.354457,220.524573 184.596859,220.704725 183.849303,220.872569 C183.826988,220.760673 183.804673,220.648777 183.7712,220.536881 C183.602721,222.507368 183.447631,224.476736 183.280268,226.446104 C170.826203,220.134056 155.738956,222.563316 145.880139,232.466104 C144.060341,234.368335 142.432454,236.550305 140.155197,237.869558 C137.87794,239.188811 134.655637,239.381272 132.870428,237.445472 C134.230534,229.523242 127.124287,222.015026 119.245936,220.54919 C111.367586,219.083354 108.628406,220.291829 101.788824,224.465547 C99.1734926,226.425963 96.6808945,228.545272 94.3255344,230.812283 C82.6357627,235.847599 70.7630071,239.133982 61.0347338,247.287837 C58.7797916,249.17664 56.6319621,251.204194 54.2107723,252.8748 C51.1848431,254.961658 47.7695151,256.462183 44.8875183,258.74374 C41.0102675,261.814164 34.4139203,268.399238 33.3829621,273.244331 C32.4546534,277.608272 32.7001196,279.997249 36.2839267,282.643588 C39.3288238,284.88822 49.6138592,282.997179 53.3806502,282.698417 C55.3689267,282.541762 57.7499492,282.832692 59.7404572,282.643588 C59.3198174,283.384339 62.713946,282.531692 62.2609492,283.247826 L338.007679,283.688696 L338.453981,281.323216 L339.670155,281.323216 L338.453981,280.861086 Z" id="Fill-59" fill="#FFFFFF"></path>
                        <path d="M236.798267,298.501635 C237.449411,298.501635 237.977267,299.029492 237.977267,299.680635 C237.977267,300.291083 237.513331,300.793172 236.918813,300.853548 L236.798267,300.859635 L149.034045,300.859635 C148.382902,300.859635 147.855045,300.331779 147.855045,299.680635 C147.855045,299.070188 148.318982,298.568099 148.913499,298.507722 L149.034045,298.501635 L236.798267,298.501635 Z" id="Stroke-61" fill="#717791" fill-rule="nonzero"></path>
                        <path d="M135.412677,298.661635 C135.975456,298.661635 136.431677,299.117857 136.431677,299.680635 C136.431677,300.205895 136.034258,300.638332 135.523709,300.693656 L135.412677,300.699635 L112.923507,300.699635 C112.360729,300.699635 111.904507,300.243413 111.904507,299.680635 C111.904507,299.155376 112.301927,298.722938 112.812476,298.667615 L112.923507,298.661635 L135.412677,298.661635 Z" id="Stroke-63" fill="#717791" fill-rule="nonzero"></path>
                        <path d="M288.178006,255.281318 C291.098692,247.610882 299.669924,243.766219 307.321746,246.696571 C312.64345,248.736037 316.291116,253.631128 316.796484,259.243675 L316.818,259.519 L316.883789,259.536949 C322.694512,261.153209 326.482363,266.88759 325.590186,272.957841 L325.541664,273.261616 C325.239289,275.024221 324.549106,276.699393 323.522387,278.166003 C323.078961,278.799414 322.206011,278.953426 321.572601,278.509999 C320.939191,278.066572 320.785179,277.193623 321.228605,276.560212 C322.018645,275.431685 322.549537,274.143135 322.782199,272.786908 C323.656239,267.720234 320.267551,262.902701 315.217932,262.028705 C314.591574,261.920294 314.122852,261.405855 314.063139,260.784004 L314.056696,260.649216 L314.056696,260.577323 C314.053696,255.576495 310.975573,251.095423 306.320061,249.311266 C300.115833,246.935286 293.164848,250.05318 290.794729,256.277693 C290.519588,257.000281 289.710769,257.363008 288.988181,257.087867 C288.265593,256.812726 287.902865,256.003907 288.178006,255.281318 Z" id="Stroke-65" fill="#717791" fill-rule="nonzero"></path>
                        <path d="M346.386,279.541097 C347.037143,279.541097 347.565,280.068953 347.565,280.720097 C347.565,281.330544 347.101063,281.832633 346.506546,281.89301 L346.386,281.899097 L321.261414,281.899097 C320.610271,281.899097 320.082414,281.371241 320.082414,280.720097 C320.082414,280.10965 320.546351,279.607561 321.140869,279.547184 L321.261414,279.541097 L346.386,279.541097 Z" id="Stroke-67" fill="#717791" fill-rule="nonzero"></path>
                        <path d="M265.727937,260.776236 C266.834107,250.404207 276.116886,242.893937 286.462552,244.003771 C289.766602,244.358101 292.918779,245.582022 295.596649,247.550868 C296.219597,248.008877 296.353307,248.885165 295.895298,249.508113 C295.437289,250.131061 294.561,250.264771 293.938052,249.806762 C291.658924,248.131083 288.976032,247.089374 286.163942,246.787802 C277.358221,245.843167 269.45444,252.237753 268.512148,261.073171 C268.430151,261.842009 267.740413,262.398805 266.971575,262.316809 C266.202736,262.234813 265.645941,261.545075 265.727937,260.776236 Z" id="Stroke-69" fill="#717791" fill-rule="nonzero"></path>
                        <path d="M267.075395,264.478083 C267.614209,264.395501 268.117949,264.765349 268.200531,265.304163 C268.556497,267.6267 269.404221,269.843067 270.687471,271.805114 C270.98584,272.261311 270.857895,272.873007 270.401699,273.171377 C269.945502,273.469746 269.333806,273.341801 269.035437,272.885605 C267.597643,270.687265 266.647989,268.204401 266.249315,265.603218 C266.166734,265.064405 266.536582,264.560664 267.075395,264.478083 Z" id="Stroke-71" fill="#717791" fill-rule="nonzero"></path>
                        <path d="M258.7733,259.765269 C261.601678,258.671694 264.726104,258.630508 267.581379,259.649583 C268.309587,259.909487 268.689222,260.710509 268.429318,261.438717 C268.169414,262.166924 267.368391,262.546559 266.640183,262.286655 C264.417359,261.493308 261.985315,261.525367 259.783054,262.376858 C259.061884,262.655694 258.251218,262.297111 257.972382,261.57594 C257.693546,260.85477 258.052129,260.044105 258.7733,259.765269 Z" id="Stroke-73" fill="#717791" fill-rule="nonzero"></path>
                        <path d="M254.068675,262.873506 C254.621943,262.280871 255.550882,262.248958 256.143517,262.802226 C256.736152,263.355494 256.768065,264.284432 256.214797,264.877067 C253.890371,267.366884 253.020227,270.889009 253.918046,274.178132 C254.131543,274.960271 253.670568,275.767393 252.888429,275.98089 C252.10629,276.194388 251.299168,275.733413 251.085671,274.951274 C249.91984,270.680299 251.049571,266.10743 254.068675,262.873506 Z" id="Stroke-75" fill="#717791" fill-rule="nonzero"></path>
                        <path d="M253.594492,277.360881 C254.207402,276.889525 255.086375,277.004276 255.557731,277.617187 C257.417863,280.035935 260.291959,281.45096 263.336952,281.448027 C264.11015,281.447283 264.737555,282.07348 264.7383,282.846678 C264.739044,283.619877 264.112847,284.247281 263.339648,284.248032 C259.423896,284.251797 255.728681,282.432505 253.338187,279.32412 C252.86683,278.71121 252.981582,277.832238 253.594492,277.360881 Z" id="Stroke-77" fill="#717791" fill-rule="nonzero"></path>
                        <path d="M259.25854,281.669245 C259.909683,281.669245 260.43754,282.197102 260.43754,282.848245 C260.43754,283.458693 259.973603,283.960782 259.379085,284.021158 L259.25854,284.027245 L143.105032,284.027245 C142.453888,284.027245 141.926032,283.499389 141.926032,282.848245 C141.926032,282.237798 142.389968,281.735709 142.984486,281.675332 L143.105032,281.669245 L259.25854,281.669245 Z" id="Stroke-79" fill="#717791" fill-rule="nonzero"></path>
                        <path d="M140.921263,238.756336 C142.025083,228.383757 151.306015,220.871604 161.652066,221.98014 C165.045763,222.342851 168.276638,223.623199 170.999793,225.684424 C171.616296,226.151072 171.737779,227.029139 171.271131,227.645642 C170.804484,228.262146 169.926417,228.383628 169.309913,227.916981 C166.992094,226.162564 164.242521,225.072949 161.354133,224.764244 C152.547889,223.820692 144.64583,230.21676 143.705542,239.052631 C143.623723,239.821488 142.934113,240.378442 142.165256,240.296623 C141.396398,240.214803 140.839444,239.525193 140.921263,238.756336 Z" id="Stroke-81" fill="#717791" fill-rule="nonzero"></path>
                        <path d="M142.211433,242.080332 C142.975745,241.963442 143.690101,242.488281 143.806991,243.252593 C143.855147,243.56747 143.91679,243.895143 143.993373,244.249102 C144.156879,245.004815 143.6768,245.749989 142.921087,245.913495 C142.165374,246.077001 141.4202,245.596923 141.256694,244.84121 C141.168616,244.434116 141.096531,244.050941 141.039172,243.67589 C140.922282,242.911578 141.447121,242.197222 142.211433,242.080332 Z" id="Stroke-83" fill="#717791" fill-rule="nonzero"></path>
                        <path d="M133.972023,237.749022 C136.799807,236.658194 139.922298,236.617025 142.776945,237.633359 C143.505355,237.892694 143.885616,238.693419 143.626282,239.42183 C143.366947,240.15024 142.566221,240.530501 141.837811,240.271167 C139.614379,239.479562 137.182632,239.511624 134.979755,240.361392 C134.258369,240.639669 133.447982,240.280459 133.169704,239.559073 C132.891427,238.837687 133.250637,238.0273 133.972023,237.749022 Z" id="Stroke-85" fill="#717791" fill-rule="nonzero"></path>
                        <path d="M208.885172,218.759261 C209.459514,218.317023 210.268004,218.389782 210.755507,218.905397 L210.848563,219.014403 L211.071714,219.304213 C211.543434,219.916844 211.429203,220.795884 210.816572,221.267604 C210.24223,221.709841 209.43374,221.637083 208.946237,221.121468 L208.853181,221.012462 L208.63003,220.722651 C208.15831,220.11002 208.272541,219.23098 208.885172,218.759261 Z" id="Stroke-87" fill="#717791" fill-rule="nonzero"></path>
                        <path d="M180.842244,224.020264 C184.069172,214.941892 194.025572,210.205309 203.080571,213.442437 C204.596602,213.983694 206.031177,214.734304 207.342654,215.672023 C207.971617,216.121737 208.116926,216.996177 207.667212,217.625139 C207.217497,218.254101 206.343057,218.39941 205.714095,217.949696 C204.613701,217.162903 203.410347,216.533275 202.138557,216.079217 C194.542291,213.36358 186.189323,217.337359 183.480531,224.958049 C183.221569,225.686592 182.421038,226.067263 181.692495,225.8083 C180.963952,225.549338 180.583282,224.748807 180.842244,224.020264 Z" id="Stroke-89" fill="#717791" fill-rule="nonzero"></path>
                        <path d="M218.930574,188.85218 C230.674274,185.467576 242.930256,192.270964 246.304409,204.045726 C246.640788,205.222232 246.88005,206.417488 247.018606,207.620571 C247.107069,208.388693 246.556097,209.083091 245.787976,209.171554 C245.019854,209.260017 244.325455,208.709045 244.236993,207.940924 C244.116047,206.890755 243.906859,205.845738 243.612513,204.816243 C240.664622,194.529006 229.960726,188.587193 219.706079,191.542643 C209.44869,194.499627 203.522257,205.237531 206.471667,215.526438 C206.68473,216.269701 206.254918,217.044957 205.511655,217.258021 C204.768392,217.471084 203.993136,217.041272 203.780073,216.298009 C200.405388,204.525546 207.187376,192.23749 218.930574,188.85218 Z" id="Stroke-91" fill="#717791" fill-rule="nonzero"></path>
                        <path d="M245.639629,206.380719 C249.683475,206.424883 253.450809,208.442525 255.734466,211.787044 C256.170468,212.425588 256.006274,213.296679 255.36773,213.732681 C254.729186,214.168683 253.858095,214.004489 253.422093,213.365945 C251.653828,210.776241 248.738172,209.214726 245.609052,209.180552 C244.835899,209.172109 244.21598,208.5385 244.224339,207.765347 C244.232868,206.992194 244.866477,206.372275 245.639629,206.380719 Z" id="Stroke-93" fill="#717791" fill-rule="nonzero"></path>
                        <path d="M250.807327,216.394535 C260.086818,201.492115 279.657249,196.954174 294.519811,206.260168 C295.787285,207.054322 296.997872,207.937755 298.143057,208.903967 C298.698558,209.372653 298.768935,210.202921 298.300249,210.758422 C297.831563,211.313923 297.001296,211.384301 296.445795,210.915615 C295.395179,210.029192 294.284762,209.218858 293.122688,208.490744 C279.495293,199.958134 261.551755,204.118834 253.041582,217.785768 C252.657403,218.402741 251.84581,218.591457 251.228838,218.207279 C250.611866,217.8231 250.423149,217.011507 250.807327,216.394535 Z" id="Stroke-95" fill="#717791" fill-rule="nonzero"></path>
                        <path d="M304.756138,243.575881 C304.873511,242.811643 305.588198,242.287256 306.352436,242.404629 C307.116674,242.522002 307.641062,243.236689 307.523688,244.000927 C307.343568,245.173721 306.910885,246.29458 306.272154,247.260177 L306.224323,247.345632 L306.183659,247.439627 C305.911095,248.163191 305.103574,248.528799 304.38001,248.256235 C303.656446,247.983672 303.290838,247.17615 303.563402,246.452586 C303.654289,246.211312 303.768335,245.980785 303.921026,245.739852 C304.298258,245.169265 304.563845,244.532093 304.70386,243.863997 L304.756138,243.575881 Z" id="Stroke-97" fill="#717791" fill-rule="nonzero"></path>
                        <path d="M300.531116,213.045392 C301.049575,212.625069 301.810608,212.704624 302.230931,213.223083 C308.187971,220.570953 310.564336,230.200446 308.712171,239.485533 C308.581605,240.140074 307.94515,240.564839 307.29061,240.434273 C306.636069,240.303707 306.211304,239.667253 306.34187,239.012712 C308.053407,230.432605 305.857496,221.534351 300.353425,214.745207 C299.933102,214.226748 300.012657,213.465715 300.531116,213.045392 Z" id="Stroke-99" fill="#717791" fill-rule="nonzero"></path>
                        <path d="M100.965146,223.039597 C110.837054,215.88656 124.62226,218.113455 131.754619,228.012971 C134.051737,231.200432 135.458896,234.946057 135.831766,238.86347 C135.90503,239.63319 135.340441,240.316563 134.570721,240.389827 C133.801001,240.463091 133.117628,239.898502 133.044364,239.128782 C132.718575,235.706003 131.489309,232.433901 129.482942,229.649884 C123.255835,221.006833 111.224875,219.063323 102.608038,225.306953 C101.981925,225.760625 101.106586,225.620834 100.652914,224.994721 C100.199242,224.368608 100.339033,223.493269 100.965146,223.039597 Z" id="Stroke-101" fill="#717791" fill-rule="nonzero"></path>
                        <path d="M97.9285664,225.993259 C98.2774815,225.532842 98.9335748,225.442452 99.3939918,225.791367 C99.8544088,226.140282 99.9447989,226.796376 99.5958838,227.256793 C99.4526826,227.445756 99.3166221,227.632949 99.1874718,227.819007 C98.8580575,228.293572 98.2063037,228.41124 97.7317388,228.081826 C97.257174,227.752412 97.1395062,227.100658 97.4689205,226.626093 C97.6150206,226.415616 97.7681529,226.204936 97.9285664,225.993259 Z" id="Stroke-103" fill="#717791" fill-rule="nonzero"></path>
                        <path d="M134.439515,281.822121 C135.044543,281.822121 135.535015,282.312593 135.535015,282.917621 C135.535015,283.482314 135.10776,283.947215 134.558882,284.006693 L134.439515,284.013121 L128.180126,284.013121 C127.575098,284.013121 127.084626,283.522649 127.084626,282.917621 C127.084626,282.352928 127.511882,281.888026 128.06076,281.828549 L128.180126,281.822121 L134.439515,281.822121 Z" id="Stroke-105" fill="#717791" fill-rule="nonzero"></path>
                        <path d="M99.3633942,281.822121 C99.9684222,281.822121 100.458894,282.312593 100.458894,282.917621 C100.458894,283.482314 100.031639,283.947215 99.482761,284.006693 L99.3633942,284.013121 L0.106889389,284.013121 C-0.498138554,284.013121 -0.988610611,283.522649 -0.988610611,282.917621 C-0.988610611,282.352928 -0.561354953,281.888026 -0.0124774052,281.828549 L0.106889389,281.822121 L99.3633942,281.822121 Z" id="Stroke-107" fill="#717791" fill-rule="nonzero"></path>
                        <g id="Group-112" transform="translate(53.556270, 227.148699)">
                            <path d="M0.954528939,25.7984974 C2.01895981,10.979003 14.8613071,-0.170305576 29.6383746,0.898300372 C34.4796383,1.24741561 39.1356865,2.90795093 43.110008,5.70199182" id="Fill-109" fill="#FFFFFF"></path>
                            <path d="M-0.546603847,25.6906764 C0.577350621,10.0424672 14.139922,-1.73140271 29.7466227,-0.602801673 C34.8598361,-0.234075476 39.7777137,1.51961131 43.9755653,4.47079906 C44.6555343,4.94883314 44.8192349,5.88758011 44.3412008,6.56754909 C43.8631667,7.24751808 42.9244198,7.41121866 42.2444508,6.93318458 C38.4930376,4.2958535 34.0986834,2.72885211 29.5298238,2.39938055 C15.5834109,1.39084353 3.46062077,11.9148179 2.45566172,25.9063184 C2.39611385,26.7353711 1.67576073,27.3591781 0.846707982,27.2996302 C0.0176552365,27.2400823 -0.606151717,26.5197292 -0.546603847,25.6906764 Z" id="Stroke-111" fill="#717791" fill-rule="nonzero"></path>
                        </g>
                        <g id="Group-116" transform="translate(32.356913, 251.765799)">
                            <path d="M0.846746945,22.1395011 C-1.62911479,12.9998431 3.7521746,3.57932639 12.8656666,1.09635613 C16.8556087,0.00984684015 21.1032904,0.410434201 24.8209881,2.222029" id="Fill-113" fill="#FFFFFF"></path>
                            <path d="M12.5570732,-0.0368783373 C16.821103,-1.19802503 21.3613185,-0.770354292 25.335477,1.1662111 C25.9185891,1.45035547 26.1609504,2.15340577 25.876806,2.73651789 C25.5926616,3.31963001 24.8896113,3.56199126 24.3064992,3.27784689 C20.844061,1.59063737 16.888826,1.21806953 13.1744054,2.22955098 C4.68642457,4.54210078 -0.326126065,13.3178946 1.98038849,21.8324065 C2.14999216,22.4584994 1.77993449,23.103539 1.15384156,23.2731427 C0.527748621,23.4427463 -0.117290928,23.0726887 -0.286894598,22.4465957 C-2.93194702,12.6823693 2.8173485,2.61670897 12.5570732,-0.0368783373 Z" id="Stroke-115" fill="#717791" fill-rule="nonzero"></path>
                        </g>
                        <path d="M227.181681,120.466914 L227.181681,118.581468 C227.181681,98.9974454 211.35134,83.1216535 191.824501,83.1216535 L81.9225717,83.1216535 C62.393501,83.1216535 46.5620444,98.9974454 46.5620444,118.581468 L46.5620444,178.859795 L227.178334,178.859795 L227.178334,169.433683" id="Fill-117" fill="#FFFFFF"></path>
                        <path d="M227.181793,169.806496 C228.018703,169.806496 228.705957,170.447255 228.779736,171.264954 L228.786293,171.410996 L228.786293,178.855431 C228.786293,179.692342 228.145534,180.379595 227.327835,180.453374 L227.181793,180.459931 L46.5655032,180.459931 C45.6793623,180.459931 44.9610032,179.741572 44.9610032,178.855431 C44.9610032,178.01852 45.6017618,177.331266 46.419461,177.257488 L46.5655032,177.250931 L225.577,177.25 L225.577293,171.410996 C225.577293,170.574085 226.218051,169.886831 227.03575,169.813053 L227.181793,169.806496 Z" id="Stroke-119" fill="#717791" fill-rule="nonzero"></path>
                        <path d="M46.5655032,128.332713 C47.3451993,128.332713 47.9859519,128.927601 48.0586366,129.688253 L48.0655032,129.832713 L48.0655032,170.258468 C48.0655032,171.086895 47.3939303,171.758468 46.5655032,171.758468 C45.7858071,171.758468 45.1450545,171.16358 45.0723698,170.402928 L45.0655032,170.258468 L45.0655032,129.832713 C45.0655032,129.004286 45.7370761,128.332713 46.5655032,128.332713 Z" id="Stroke-121" fill="#717791" fill-rule="nonzero"></path>
                        <path d="M191.824501,81.5841535 C211.997875,81.5841535 228.388444,97.8198234 228.714238,117.969681 L228.719181,118.581468 L228.719181,120.466914 C228.719181,121.316052 228.030819,122.004414 227.181681,122.004414 C226.379718,122.004414 225.721162,121.390412 225.650464,120.606858 L225.644181,120.466914 L225.644181,118.581468 C225.644181,100.033121 210.802721,84.9632406 192.383735,84.6636979 L191.824501,84.6591535 L81.9225717,84.6591535 C63.4303543,84.6591535 48.4027783,99.5434493 48.104076,118.02047 L48.0995444,118.581468 L48.0995444,121.378865 C48.0995444,122.228003 47.4111822,122.916365 46.5620444,122.916365 C45.7600809,122.916365 45.1015253,122.302363 45.0308276,121.518809 L45.0245444,121.378865 L45.0245444,118.581468 C45.0245444,98.3536323 61.2146327,81.9158434 81.312366,81.5891104 L81.9225717,81.5841535 L191.824501,81.5841535 Z" id="Stroke-123" fill="#717791" fill-rule="nonzero"></path>
                        <g id="Group-128" transform="translate(167.363344, 82.802974)">
                            <path d="M59.637473,72.6302929 L59.637473,30.0147353 C59.637473,13.6141517 46.3800646,0.318679554 30.0264344,0.318679554 L30.1056531,0.318679554 C13.7520228,0.318679554 0.494614469,13.6141517 0.493498714,30.0147353 L0.493498714,96.052345 L59.637473,96.052345 L59.637473,88.6000773" id="Fill-125" fill="#B8D4FF"></path>
                            <path d="M29.5884321,-1.34161875 L30.005,-1.344 L30.5436613,-1.34161868 C47.4069691,-1.06745512 61.0244041,12.589031 61.2977833,29.4961653 L61.301973,30.0147353 L61.301973,72.6302929 C61.301973,73.5495709 60.556751,74.2947929 59.637473,74.2947929 C58.7665781,74.2947929 58.0518996,73.625951 57.9790827,72.7739124 L57.972973,72.6302929 L57.972973,30.0147353 C57.972973,14.6871868 45.7087305,2.23445654 30.4885473,1.98693469 L30.066,1.983 L29.6435444,1.98693466 C14.5772346,2.23195398 2.40710981,14.4367457 2.16177444,29.5511502 L2.15799871,30.0147353 L2.157,94.387 L57.972,94.387 L57.972973,88.6000773 C57.972973,87.7291824 58.6418149,87.0145039 59.4938536,86.941687 L59.637473,86.9355773 C60.5083679,86.9355773 61.2230464,87.6044193 61.2958633,88.4564579 L61.301973,88.6000773 L61.301973,96.052345 C61.301973,96.9232399 60.6331311,97.6379184 59.7810924,97.7107353 L59.637473,97.716845 L0.493498714,97.716845 C-0.377396201,97.716845 -1.09207471,97.048003 -1.16489158,96.1959644 L-1.17100129,96.052345 L-1.17100129,30.0146221 C-1.16983483,12.8689029 12.553242,-1.06466202 29.5884321,-1.34161875 Z" id="Stroke-127" fill="#717791" fill-rule="nonzero"></path>
                        </g>
                        <g id="Group-132" transform="translate(76.987138, 97.349442)">
                            <path d="M14.7500662,14.9460487 C11.4485453,18.221242 6.12527524,18.1921491 2.85834277,14.8800301 C-0.407473955,11.5690301 -0.378464309,6.23047621 2.92305659,2.9552829 C6.22457749,-0.319910409 11.5489633,-0.290817472 14.8147801,3.02018253 C16.1916225,4.41664349 17.0395968,6.25061747 17.2125389,8.20655799" id="Fill-129" fill="#E5EEFD"></path>
                            <path d="M1.86665087,1.89038528 C5.75748996,-1.96942678 12.0339561,-1.93515997 15.8829167,1.96705188 C17.5045971,3.61183953 18.5030877,5.7715219 18.7067096,8.07444505 C18.7796736,8.89965276 18.1698596,9.62776476 17.3446518,9.70072872 C16.5194441,9.77369269 15.7913321,9.16387864 15.7183682,8.33867093 C15.5761222,6.72989805 14.8787781,5.22157957 13.7468583,4.07353102 C11.0639467,1.35350082 6.69164088,1.3296299 3.97946231,4.02018052 C1.26486662,6.713129 1.24102673,11.1042929 3.92626261,13.8266796 C6.61015137,16.5476905 10.9813415,16.571841 13.6936605,13.8811511 C14.2817872,13.2977143 15.2315271,13.3015163 15.8149639,13.889643 C16.3984006,14.4777697 16.3945987,15.4275096 15.806472,16.0109463 C11.9154307,19.8709589 5.640084,19.8362881 1.79042097,15.9333786 C-2.05594846,12.0337938 -2.0218217,5.74784968 1.86665087,1.89038528 Z" id="Stroke-131" fill="#717791" fill-rule="nonzero"></path>
                        </g>
                        <path d="M110.102542,55.9939446 C108.192368,53.3878888 105.158629,51.850439 101.935211,51.8537904 L82.8557897,51.8537904 L82.8557897,105.096108 C82.8557897,106.748811 84.1913492,108.089324 85.840436,108.089324 C87.4884071,108.089324 88.8261981,106.748811 88.8261981,105.096108 L88.8261981,72.1897587 L101.94079,72.1897587 C107.539651,72.1908777 112.078557,67.638952 112.078557,62.0240152 L112.078557,62.0217773 C112.080777,60.5570599 111.766134,59.1080078 111.156931,57.7764465" id="Fill-133" fill="#FFDBE4"></path>
                        <path d="M84.3534466,105.093535 C84.3534466,105.919244 85.0188698,106.58675 85.8380929,106.58675 C86.6099351,106.58675 87.2450055,105.995695 87.3170489,105.237543 L87.323855,105.093535 L87.323855,72.1871851 C87.323855,71.407489 87.9187431,70.7667365 88.679395,70.6940517 L88.823855,70.6871851 L101.939439,70.6871855 C104.81996,70.6890916 107.512073,69.2485517 109.114594,66.8464465 C109.574345,66.1573016 110.505709,65.9713408 111.194854,66.4310916 C111.883999,66.8908424 112.06996,67.8222064 111.610209,68.5113513 C109.514589,71.6525875 106.034084,73.5744015 102.280411,73.682382 L101.938447,73.6871851 L90.323,73.687 L90.323855,105.093535 C90.323855,107.503889 88.4296713,109.471397 86.0493473,109.581859 L85.8380929,109.58675 C83.4307182,109.58675 81.4684869,107.687374 81.3583246,105.304965 L81.3534466,105.093535 L81.3534466,51.8512042 C81.3534466,51.0715171 81.9483347,50.4307646 82.7089866,50.3580798 L82.8534466,50.3512042 L101.930862,50.3512042 C103.845992,50.3486539 105.732698,50.8216872 107.421839,51.7278055 C108.151862,52.1194165 108.426198,53.0286798 108.034587,53.7587019 C107.642976,54.4887241 106.733713,54.7630605 106.003691,54.3714495 C104.85604,53.7558073 103.585629,53.4099655 102.287515,53.3580627 L101.932868,53.3512042 L84.353,53.351 L84.3534466,105.093535 Z" id="Stroke-135" fill="#717791" fill-rule="nonzero"></path>
                        <path d="M151.219811,178.855431 L246.268801,178.855431 C248.953309,178.855431 251.129032,176.672342 251.129032,173.979007 C251.129032,171.286791 248.952193,169.104821 246.268801,169.103702 L160.22619,169.103702" id="Fill-137" fill="#FFFFFF"></path>
                        <path d="M177.129553,167.768409 C177.870167,167.768409 178.470553,168.368795 178.470553,169.109409 C178.470553,169.806457 177.938723,170.37929 177.2587,170.44427 L177.129553,170.450409 L160.226971,170.450409 C159.486357,170.450409 158.885971,169.850023 158.885971,169.109409 C158.885971,168.412361 159.417801,167.839528 160.097824,167.774548 L160.226971,167.768409 L177.129553,167.768409 Z" id="Stroke-139" fill="#717791" fill-rule="nonzero"></path>
                        <path d="M228.87272,167.768409 C229.613334,167.768409 230.21372,168.368795 230.21372,169.109409 C230.21372,169.806457 229.68189,170.37929 229.001868,170.44427 L228.87272,170.450409 L191.716942,170.450409 C190.976328,170.450409 190.375942,169.850023 190.375942,169.109409 C190.375942,168.412361 190.907772,167.839528 191.587795,167.774548 L191.716942,167.768409 L228.87272,167.768409 Z" id="Stroke-141" fill="#717791" fill-rule="nonzero"></path>
                        <path d="M246.269426,167.603702 C249.782383,167.605167 252.629032,170.45999 252.629032,173.979007 C252.629032,177.423152 249.905224,180.230954 246.497007,180.351405 L246.268801,180.355431 L151.219811,180.355431 C150.391383,180.355431 149.719811,179.683858 149.719811,178.855431 C149.719811,178.075735 150.314699,177.434982 151.075351,177.362297 L151.219811,177.355431 L246.268801,177.355431 C248.123717,177.355431 249.629032,175.845075 249.629032,173.979007 C249.629032,172.176856 248.22184,170.705551 246.453029,170.608768 L246.268801,170.603702 L235.121286,170.603702 C234.292859,170.603702 233.621286,169.932129 233.621286,169.103702 C233.621286,168.324006 234.216175,167.683254 234.976826,167.610569 L235.121286,167.603702 L246.269426,167.603702 Z" id="Stroke-143" fill="#717791" fill-rule="nonzero"></path>
                    </g>
                    <g id="Group-164" transform="translate(168.000000, 110.000000)">
                        <g id="Group-149" transform="translate(0.000000, 6.802900)">
                            <mask id="mask-2" fill="white">
                                <use xlink:href="#path-1"></use>
                            </mask>
                            <g id="Clip-147"></g>
                            <path d="M-13.6407951,7.35053395 L-13.865293,32.2253395 C-13.8775268,33.546236 -12.8273805,34.6256295 -11.5203073,34.6381015 L35.0541317,35.062239 C36.3612049,35.0734871 37.4315463,34.0122347 37.4416439,32.6913382 L37.7031478,3.4059855 C37.714278,2.08508899 36.6663756,1.00569545 35.3604244,0.993223467 L35.3581805,0.993223467 L-11.2162585,0.5691274 C-11.5696732,0.566908372 -11.9186,0.64400791 -12.2383561,0.795939354" id="Fill-146" fill="#E5EEFD" mask="url(#mask-2)"></path>
                            <path d="M-11.2071531,-0.430898335 L35.3699741,-0.0067309334 C37.1682756,0.0104430531 38.6192192,1.44366818 38.6997117,3.22901152 L38.7031079,3.41491465 L38.4416147,32.6989824 C38.4277886,34.507626 37.0074126,35.9772757 35.2301141,36.0587627 L35.0450254,36.0621975 L-11.5298488,35.638056 C-13.3294977,35.6208839 -14.7827618,34.1872198 -14.8619989,32.4021834 L-14.8652523,32.2163147 L-14.6407544,7.3415092 C-14.6357702,6.78924694 -14.1840326,6.34559044 -13.6317704,6.35057467 C-13.1189554,6.35520289 -12.6997852,6.74504186 -12.6465108,7.2428816 L-12.6408358,7.35955869 L-12.8653359,32.2346008 C-12.8720519,32.9597332 -12.3334151,33.556824 -11.6424468,33.6305492 L-11.511201,33.638143 L35.062737,34.062276 C35.7714636,34.068375 36.3623847,33.5235846 36.4343664,32.8167454 L36.4416838,32.682409 L36.7031833,3.39755951 C36.7093033,2.67126485 36.1716817,2.07445059 35.4898585,2.00080501 L35.3490751,1.99318201 L-11.2225372,1.56910166 C-11.3751961,1.56814917 -11.525864,1.59284782 -11.668903,1.64196047 L-11.8091903,1.69916507 C-12.3080281,1.93618681 -12.9045601,1.72394296 -13.1415818,1.22510517 C-13.3786036,0.726267382 -13.1663597,0.129735372 -12.6675219,-0.107286365 C-12.2120833,-0.323687088 -11.7143439,-0.434019702 -11.2071531,-0.430898335 Z" id="Stroke-148" fill="#717791" fill-rule="nonzero" mask="url(#mask-2)"></path>
                        </g>
                        <g id="Group-152" transform="translate(0.000000, 7.826710)">
                            <mask id="mask-4" fill="white">
                                <use xlink:href="#path-3"></use>
                            </mask>
                            <g id="Clip-151"></g>
                            <path d="M-13.4176843,-0.614638957 C-13.1003963,-1.01366987 -12.5399668,-1.10553287 -12.1156217,-0.846952561 L-12.0125899,-0.774981538 L8.84555532,15.8104324 C10.6900358,17.3207778 13.2916986,17.3958734 15.2229714,16.013743 L15.4203083,15.8655649 L36.288601,-0.0827014277 C36.7274125,-0.418056283 37.3549984,-0.334188071 37.6903532,0.104623467 C37.9999115,0.509680272 37.952262,1.0755862 37.5979625,1.42401754 L37.5030283,1.50637572 L16.6461207,17.4458105 C14.0463144,19.4926764 10.4203079,19.5149067 7.81077144,17.5409412 L-13.2573418,0.790455437 C-13.6896252,0.446726715 -13.7614131,-0.182355474 -13.4176843,-0.614638957 Z" id="Stroke-150" fill="#717791" fill-rule="nonzero" mask="url(#mask-4)"></path>
                        </g>
                        <path d="M16.4590913,23.8085592 C16.8466572,23.4773643 17.4143198,23.4940701 17.7815609,23.8288336 L17.8689755,23.9191334 L27.1879023,34.8241828 C27.5466969,35.2440458 27.4971911,35.8752724 27.0773282,36.234067 C26.6897624,36.565262 26.1220997,36.5485561 25.7548586,36.2137926 L25.667444,36.1234928 L16.3485172,25.2184434 C15.9897226,24.7985804 16.0392284,24.1673538 16.4590913,23.8085592 Z" id="Stroke-153" fill="#717791" fill-rule="nonzero"></path>
                        <g id="Group-157" transform="translate(0.000000, 27.211602)">
                            <mask id="mask-6" fill="white">
                                <use xlink:href="#path-5"></use>
                            </mask>
                            <g id="Clip-156"></g>
                            <path d="M3.29016664,-0.253803061 C3.65639269,-0.667199883 4.28840189,-0.705439356 4.70179871,-0.339213315 C5.08339578,-0.00115850877 5.14533214,0.563362425 4.86455615,0.973359271 L4.78720896,1.07241875 L-1.93552274,8.66105421 C-2.30174878,9.07445104 -2.93375799,9.11269051 -3.34715481,8.74646447 C-3.72875187,8.40840966 -3.79068824,7.84388873 -3.50991224,7.43389188 L-3.43256506,7.3348324 L3.29016664,-0.253803061 Z" id="Stroke-155" fill="#717791" fill-rule="nonzero" mask="url(#mask-6)"></path>
                        </g>
                        <path d="M36.8502634,0.417017798 C41.8227512,0.417017798 45.8528,4.49082136 45.8528,9.51589717 C45.8528,14.540973 41.8227512,18.6147765 36.8502634,18.6147765 C31.8766537,18.6147765 27.8466049,14.540973 27.8466049,9.51589717 C27.8466049,4.49082136 31.8766537,0.417017798 36.8502634,0.417017798" id="Fill-158" fill="#F88BA6"></path>
                        <path d="M36.8502634,-0.582982202 C31.3223683,-0.582982202 26.8466049,3.94050528 26.8466049,9.51589717 C26.8466049,15.0912891 31.3223683,19.6147765 36.8502634,19.6147765 C42.3772296,19.6147765 46.8528,15.0910947 46.8528,9.51589717 C46.8528,3.94069964 42.3772296,-0.582982202 36.8502634,-0.582982202 Z M36.8502634,1.4170178 C41.2678448,1.4170178 44.8528,5.04051048 44.8528,9.51589717 C44.8528,13.9912839 41.2678448,17.6147765 36.8502634,17.6147765 C32.431714,17.6147765 28.8466049,13.9914401 28.8466049,9.51589717 C28.8466049,5.0403542 32.431714,1.4170178 36.8502634,1.4170178 Z" id="Stroke-160" fill="#717791" fill-rule="nonzero"></path>
                        <polygon id="Fill-162" fill="#FFFFFF" points="36.3660293 6.73600527 36.3402244 6.73600527 34.761639 7.53988134 34.4833951 6.29268293 36.578078 5.24730389 37.9423707 5.24730389 37.9423707 13.9527488 36.371639 13.9527488"></polygon>
                    </g>
                    <g id="Group-181" transform="translate(99.000000, 56.000000)">
                        <g id="Group-168" transform="translate(11.142857, 0.000000)">
                            <path d="M1.50506571,1.2462 C1.44712286,1.13959024 1.38806571,1.03298049 1.32789429,0.928639024" id="Fill-165" fill="#FFBFBF"></path>
                            <path d="M0.578549529,-0.370777166 C1.29619727,-0.784628847 2.21345879,-0.538353478 2.62731048,0.179294268 L2.75507094,0.405913234 C2.77711101,0.445804939 2.79967485,0.487009227 2.8229881,0.529903562 C3.2185877,1.257772 2.94923059,2.16852279 2.22136215,2.56412239 C1.49349372,2.95972198 0.582742928,2.69036487 0.187143329,1.96249644 L0.0284780953,1.67798378 C-0.385373586,0.960336035 -0.139098216,0.0430745153 0.578549529,-0.370777166 Z" id="Stroke-167" fill="#717791" fill-rule="nonzero"></path>
                        </g>
                        <path d="M-0.892244389,67.7771525 C-0.692107269,65.9307768 0.879520414,64.5598793 2.70048572,64.6198412 L2.81,64.626 L38.3267486,64.6268085 C38.9267507,64.6268085 39.4207222,65.0807799 39.4839184,65.6639779 L39.4907486,65.7908085 C39.4907486,66.3908107 39.0367772,66.8847822 38.4535792,66.9479783 L38.3267486,66.9548085 L2.78883429,66.9548085 L2.68796371,66.9504296 C2.10050436,66.899329 1.5693119,67.3075877 1.44295229,67.898668 L1.428,67.989 L1.428,90.328 L1.44295229,90.4193149 C1.56028621,90.9681752 2.02668519,91.3593985 2.56306782,91.3715732 L2.78883429,91.3631744 L48.6974057,91.3631744 L48.7981882,91.3675456 C49.3869922,91.4187181 49.9190612,91.0101838 50.0455095,90.4192718 L50.059,90.334 L50.0126951,71.7139649 C50.0111938,71.1139646 50.4639278,70.6188588 51.0469659,70.5542036 L51.173779,70.5470561 C51.7737793,70.5455548 52.2688851,70.9982888 52.3335403,71.5813269 L52.3406878,71.70814 L52.3874878,90.4124815 L52.380713,90.5408304 C52.1805577,92.3873731 50.6077567,93.7580564 48.7859303,93.6981434 L48.675,93.691 L2.81,93.691 L2.70048572,93.6981418 C0.942312321,93.756036 -0.583422675,92.4800494 -0.866694203,90.7300995 L-0.892244389,90.5408304 L-0.899022857,90.4153939 L-0.899022857,67.902589 L-0.892244389,67.7771525 Z" id="Stroke-169" fill="#C9D7ED" fill-rule="nonzero"></path>
                        <path d="M-0.89291296,67.7769257 C-0.692757739,65.930383 0.880043288,64.5596997 2.70186969,64.6196127 L2.822,64.626 L31.20468,64.6265817 C31.8046822,64.6265817 32.2986536,65.080553 32.3618498,65.6637511 L32.36868,65.7905817 C32.36868,66.3905839 31.9147087,66.8845553 31.3315106,66.9477515 L31.20468,66.9545817 L2.79039429,66.9545817 L2.68961183,66.9502105 C2.10080781,66.899038 1.56873878,67.3075723 1.44229053,67.8984843 L1.428,67.984 L1.428,90.332 L1.44229053,90.419045 C1.55970676,90.967749 2.02686744,91.3591988 2.56443508,91.3713491 L2.79039429,91.3629476 L48.6978514,91.3629476 L48.7986339,91.3673188 C49.3874379,91.4184913 49.9195069,91.009957 50.0459552,90.419045 L50.059,90.334 L49.9953126,65.7936367 C49.9937378,65.1936366 50.4464112,64.6984754 51.0294413,64.6337488 L51.1562536,64.6265857 C51.7562537,64.625011 52.2514149,65.0776843 52.3161415,65.6607145 L52.3233046,65.7875267 L52.3879331,90.4121121 L52.3811587,90.5406036 C52.1810035,92.3871463 50.6082024,93.7578295 48.786376,93.6979166 L48.666,93.69 L2.822,93.69 L2.70186969,93.6979166 C0.942864888,93.7557636 -0.583992596,92.4799751 -0.867356841,90.7298887 L-0.89291296,90.5406036 L-0.899691429,90.4151671 L-0.899691429,67.9023622 L-0.89291296,67.7769257 Z" id="Stroke-171" fill="#C9D7ED" fill-rule="nonzero"></path>
                        <path d="M39.8732657,81.4361049 C40.5161252,81.4361049 41.0372657,81.9572454 41.0372657,82.6001049 C41.0372657,83.200107 40.5832944,83.6940785 40.0000963,83.7572747 L39.8732657,83.7641049 L11.3453229,83.7641049 C10.7024634,83.7641049 10.1813229,83.2429643 10.1813229,82.6001049 C10.1813229,82.0001027 10.6352942,81.5061313 11.2184922,81.4429351 L11.3453229,81.4361049 L39.8732657,81.4361049 Z" id="Stroke-173" fill="#C9D7ED" fill-rule="nonzero"></path>
                        <path d="M31.8147514,75.2897122 C32.4576109,75.2897122 32.9787514,75.8108527 32.9787514,76.4537122 C32.9787514,77.0537143 32.5247801,77.5476858 31.9415821,77.610882 L31.8147514,77.6177122 L11.3453229,77.6177122 C10.7024634,77.6177122 10.1813229,77.0965716 10.1813229,76.4537122 C10.1813229,75.85371 10.6352942,75.3597386 11.2184922,75.2965424 L11.3453229,75.2897122 L31.8147514,75.2897122 Z" id="Stroke-175" fill="#C9D7ED" fill-rule="nonzero"></path>
                        <path d="M39.2578457,75.2897122 C39.9007052,75.2897122 40.4218457,75.8108527 40.4218457,76.4537122 C40.4218457,77.0537143 39.9678744,77.5476858 39.3846763,77.610882 L39.2578457,77.6177122 L35.2252457,77.6177122 C34.5823863,77.6177122 34.0612457,77.0965716 34.0612457,76.4537122 C34.0612457,75.85371 34.515217,75.3597386 35.0984151,75.2965424 L35.2252457,75.2897122 L39.2578457,75.2897122 Z" id="Stroke-177" fill="#C9D7ED" fill-rule="nonzero"></path>
                        <path d="M154.142553,33.3533928 L149.356696,34.2697831 C148.957854,34.3461528 148.695503,34.7302169 148.769416,35.1295215 L149.670873,39.9995459 C149.745432,40.4023426 150.133591,40.6674912 150.535921,40.5904535 L155.321778,39.6740633 C155.72062,39.5976935 155.982971,39.2136294 155.909059,38.8143249 L155.007602,33.9443005 C154.933043,33.5415037 154.544883,33.2763552 154.142553,33.3533928 Z M153.69,34.944 L154.322,38.361 L150.988,38.999 L150.355,35.582 L153.69,34.944 Z" id="Stroke-179" fill="#9FC3FD" fill-rule="nonzero"></path>
                    </g>
                    <g id="Group-2-Copy" transform="translate(673.580019, 277.188368) rotate(12.000000) translate(-673.580019, -277.188368) translate(633.080019, 243.688368)">
                        <g id="Group-19" transform="translate(1.490301, 0.636174)">
                            <path d="M1.81760445,33.7814493 L14.5606684,63.9509814 C15.2399555,65.5508468 17.0977832,66.3050476 18.7135486,65.6363129 L76.313771,41.7372933 C77.9295364,41.0655598 78.6905196,39.2257896 78.0157711,37.6244249 L63.0109381,2.10351556 C62.331651,0.503650208 60.4753362,-0.25055061 58.8595708,0.418184112 L1.25934841,24.3172037 C0.822123494,24.4956329 0.431798136,24.7715234 0.117117227,25.1223843" id="Fill-16" fill="#FFFFFF"></path>
                            <path d="M58.4771496,-0.505804003 C60.5322813,-1.35638409 62.8849872,-0.453683145 63.8437467,1.52005899 L63.9321216,1.71438691 L78.9373057,37.2361285 C79.8008833,39.2856371 78.8827271,41.6300273 76.8872187,42.5763723 L76.6970049,42.6609446 L19.0959698,66.560301 C17.0407693,67.4109096 14.6866805,66.508117 13.7278491,64.5344031 L13.6394715,64.3400783 L0.8964076,34.1705462 C0.681515336,33.6617832 0.919744614,33.0751447 1.42850758,32.8602525 C1.90093034,32.6607097 2.44050086,32.8518686 2.68722682,33.2875392 L2.73880129,33.3923525 L15.481135,63.5601603 C15.9253178,64.6063049 17.1119019,65.1255435 18.184796,64.7670242 L18.3303147,64.7126616 L75.9298872,40.8139119 C76.9849329,40.3752903 77.5049783,39.2143896 77.1511203,38.162928 L77.0945877,38.0135535 L62.0904715,2.49433668 C61.6462017,1.44798712 60.4608846,0.929017016 59.3882889,1.28748227 L59.2428047,1.34183542 L1.63719108,25.2430735 C1.4004844,25.3396723 1.18335337,25.4787623 0.996172334,25.652955 L0.861564283,25.7900658 C0.492813974,26.2012125 -0.139417514,26.2355816 -0.55056427,25.8668313 C-0.961711026,25.498081 -0.996080137,24.8658495 -0.627329828,24.4547028 C-0.270530069,24.0568806 0.159443943,23.7326989 0.634789461,23.5013827 L0.876114462,23.3935524 L58.4771496,-0.505804003 Z" id="Stroke-18" fill="#717791" fill-rule="nonzero"></path>
                        </g>
                        <path d="M61.1069597,0.660462833 C61.3840092,0.182695107 61.9959095,0.0199808645 62.4736772,0.2970304 C62.9173187,0.554290683 63.0893069,1.10027432 62.8897918,1.55948702 L62.8371097,1.66374795 L45.5967308,31.3943007 C43.5380813,35.0689864 39.2284542,36.8994952 35.1329455,35.8884355 L0.718116993,26.8537618 C0.183932916,26.7135269 -0.135426024,26.1668024 0.004808837,25.6326183 C0.135026922,25.1365902 0.615738687,24.825794 1.11144509,24.8962052 L1.22595235,24.9193101 L35.3824898,33.8862541 C38.6008349,34.7826588 42.01542,33.4394109 43.7244393,30.634517 L61.1069597,0.660462833 Z" id="Stroke-20" fill="#717791" fill-rule="nonzero"></path>
                        <path d="M45.0181659,30.3270858 C45.2365299,29.8630624 45.7657984,29.6449962 46.240396,29.8044946 L46.3487816,29.8480642 L63.3487816,37.8480642 C63.8484992,38.0832254 64.0629645,38.6789623 63.8278033,39.1786799 C63.6094393,39.6427034 63.0801707,39.8607695 62.6055732,39.7012711 L62.4971876,39.6577016 L45.4971876,31.6577016 C44.99747,31.4225404 44.7830047,30.8268034 45.0181659,30.3270858 Z" id="Stroke-22" fill="#717791" fill-rule="nonzero"></path>
                        <path d="M30.1274842,41.0124755 C30.2899034,40.4846134 30.8494869,40.1883632 31.3773491,40.3507824 C31.8675068,40.5016001 32.1579583,40.9948709 32.0669087,41.4872047 L32.0390423,41.6006472 L28.0390423,54.6006472 C27.8766231,55.1285094 27.3170396,55.4247595 26.7891774,55.2623404 C26.2990197,55.1115226 26.0085683,54.6182519 26.0996178,54.1259181 L26.1274842,54.0124755 L30.1274842,41.0124755 Z" id="Stroke-24" fill="#717791" fill-rule="nonzero"></path>
                    </g>
                    <g id="Group-2-Copy-2" transform="translate(1143.062446, 36.062446) rotate(-315.000000) translate(-1143.062446, -36.062446) translate(1115.062446, 13.062446)">
                        <g id="Group-19" transform="translate(0.891697, 0.963231)">
                            <path d="M1.26542082,23.0328064 L10.1371742,43.6029419 C10.6100956,44.6937592 11.90352,45.207987 13.0284199,44.7520315 L53.1298406,28.4572455 C54.2547406,27.9992453 54.784539,26.7448566 54.3147774,25.6530169 L43.8683747,1.43421516 C43.3954532,0.343397869 42.1030822,-0.170829961 40.9781822,0.285125531 L0.876761552,16.5799116 C0.572364458,16.7015679 0.300618956,16.8896751 0.08153731,17.1288984" id="Fill-16" fill="#FFFFFF"></path>
                            <path d="M40.6025372,-0.641638131 C42.1684527,-1.27635032 43.961982,-0.608010154 44.7080746,0.870558881 L44.7865986,1.03815357 L55.2333639,25.2577971 C55.9016819,26.8111298 55.1997693,28.5844617 53.6786457,29.3077083 L53.5062887,29.3836832 L13.4040649,45.6787952 C11.8381205,46.3135191 10.0436287,45.6451451 9.29746452,44.1665669 L9.21893637,43.9989713 L0.347183007,23.4288358 C0.128461983,22.9217071 0.362262631,22.3332896 0.869391371,22.1145685 C1.34029663,21.9114704 1.8812927,22.0985569 2.13129557,22.5323554 L2.18365863,22.6367769 L11.054658,43.2051688 C11.2928501,43.7545709 11.9334922,44.0395276 12.5259242,43.8691437 L12.6519718,43.8255938 L52.7527502,27.531069 C53.3226694,27.2990279 53.6040107,26.7075797 53.4388392,26.1645519 L53.3965534,26.0490785 L42.9508908,1.83198825 C42.7126305,1.2824288 42.0728178,0.997668193 41.4806341,1.16802318 L41.3546303,1.21156323 L1.24788252,17.5084961 C1.12471555,17.5577214 1.01141487,17.6270273 0.91269426,17.7129474 L0.819008258,17.8042772 C0.446006815,18.2115712 -0.186547589,18.2393708 -0.593841547,17.8663693 C-1.00113551,17.4933679 -1.02893508,16.8608135 -0.655933638,16.4535195 C-0.388320963,16.1613034 -0.067910684,15.9220644 0.284901248,15.7491539 L0.500313438,15.6534739 L40.6025372,-0.641638131 Z" id="Stroke-18" fill="#717791" fill-rule="nonzero"></path>
                        </g>
                        <path d="M41.8129946,1.20189552 C42.0937138,0.726274662 42.7068485,0.568275613 43.1824693,0.848994767 C43.6241173,1.10966255 43.7918974,1.65695397 43.5888533,2.1146172 L43.5353701,2.2184695 L31.6673985,22.3260856 C30.18966,24.9176669 27.1171054,26.2138118 24.1899861,25.5323592 L0.42443042,19.4038425 C-0.110352344,19.2659083 -0.432061682,18.7205634 -0.294127496,18.1857807 C-0.166045752,17.6891967 0.313323748,17.3763341 0.809328644,17.4446109 L0.923934293,17.4672227 L24.4458333,23.534235 C26.5155439,24.1006185 28.7082234,23.2646482 29.8223248,21.5135563 L29.9375109,21.3224597 L41.8129946,1.20189552 Z" id="Stroke-20" fill="#717791" fill-rule="nonzero"></path>
                        <path d="M31.0145614,22.3463824 C31.211806,21.8729955 31.7307166,21.6313143 32.2120158,21.7692768 L32.3222537,21.8079209 L44.3222537,26.8079209 C44.832055,27.0203381 45.0731325,27.6058119 44.8607152,28.1156132 C44.6634707,28.5890001 44.14456,28.8306813 43.6632608,28.6927188 L43.5530229,28.6540747 L31.5530229,23.6540747 C31.0432216,23.4416575 30.8021442,22.8561837 31.0145614,22.3463824 Z" id="Stroke-22" fill="#717791" fill-rule="nonzero"></path>
                        <path d="M20.4577321,28.546498 C20.6323799,28.0225547 21.1986999,27.7393947 21.7226432,27.9140425 C22.209162,28.0762154 22.4880666,28.5761057 22.3855951,29.0661895 L22.3550987,29.1789535 L19.3550987,38.1789535 C19.1804509,38.7028969 18.614131,38.9860568 18.0901876,38.8114091 C17.6036688,38.6492361 17.3247642,38.1493459 17.4272358,37.659262 L17.4577321,37.546498 L20.4577321,28.546498 Z" id="Stroke-24" fill="#717791" fill-rule="nonzero"></path>
                    </g>
                </g>
                <g id="Group-19" opacity="0.349999994" transform="translate(880.000000, 126.000000)">
                    <g id="Group" transform="translate(192.000000, 0.000000)">
                        <polygon id="Fill-4" fill="#FFFFFF" points="12 18 46.7672619 70 125 26.0391306"></polygon>
                        <g id="Group-9" transform="translate(11.000000, 18.000000)" fill="#717791" fill-rule="nonzero">
                            <path d="M0.506891042,-1.55438469 L0.645793725,-1.54967709 L113.591325,6.47934583 C115.272482,6.5988552 115.806735,8.76765047 114.452203,9.67229231 L114.32384,9.75095776 L36.1279918,53.6449332 C35.3783255,54.0657463 34.4427214,53.8772784 33.9117007,53.2207647 L33.8170196,53.0922179 L13.6481748,22.9546917 C13.1106351,22.1514669 13.3260154,21.0645626 14.1292402,20.5270229 C14.8878414,20.0193465 15.8994778,20.1832562 16.4623752,20.8796888 L16.5569091,21.0080883 L35.825,49.8 L107.519,9.556 L3.964,2.195 L8.97325784,9.67637756 C9.48099676,10.4349369 9.31717048,11.4465868 8.62078427,12.0095417 L8.49239258,12.1040861 C7.73383325,12.611825 6.72218337,12.4479987 6.15922848,11.7516125 L6.06468407,11.6232208 L-0.932583256,1.16933946 C-1.71638848,-0.00166150037 -0.865185949,-1.54932944 0.506891042,-1.55438469 Z" id="Stroke-5"></path>
                            <path d="M111.193101,7.57907984 C112.014123,7.46856122 112.769286,8.04453801 112.879804,8.86556002 C112.983822,9.63828661 112.479733,10.3526743 111.735577,10.5261862 L111.593324,10.5522635 L70.0084067,16.1500524 C69.1873847,16.260571 68.4322218,15.6845942 68.3217032,14.8635722 C68.2176857,14.0908456 68.7217748,13.3764579 69.4659307,13.202946 L69.6081834,13.1768687 L111.193101,7.57907984 Z" id="Stroke-7"></path>
                        </g>
                        <path d="M70.366498,32.436596 C71.1874163,32.3253095 71.9431176,32.9005798 72.054404,33.721498 C72.1591442,34.494127 71.6557235,35.2089859 70.9117302,35.3831937 L70.769502,35.409404 L69.633502,35.563404 C68.8125837,35.6746905 68.0568824,35.0994202 67.945596,34.278502 C67.8408558,33.505873 68.3442765,32.7910141 69.0882698,32.6168063 L69.230498,32.590596 L70.366498,32.436596 Z" id="Stroke-10" fill="#717791" fill-rule="nonzero"></path>
                        <path d="M61.781759,33.5159613 C62.601371,33.3954301 63.3635075,33.9621471 63.4840387,34.781759 C63.5974798,35.5531585 63.1021475,36.2736455 62.3601648,36.4562271 L62.218241,36.4840387 L28.218241,41.4840387 C27.398629,41.6045699 26.6364925,41.0378529 26.5159613,40.218241 C26.4025202,39.4468415 26.8978525,38.7263545 27.6398352,38.5437729 L27.781759,38.5159613 L61.781759,33.5159613 Z" id="Stroke-11" fill="#717791" fill-rule="nonzero"></path>
                        <g id="Group-3" transform="translate(21.000000, 39.000000)">
                            <polyline id="Fill-1" fill="#FFFFFF" points="8.4105 18.9570705 0.81225 22.6893432 4.02975 0.971906818"></polyline>
                            <path d="M4.10567325,-0.526276005 L4.24957981,-0.511897365 C5.02085739,-0.397630397 5.56750885,0.284738897 5.52793282,1.04783007 L5.51355418,1.19173663 L2.715,20.082 L7.74917287,17.6107249 C8.44899981,17.2669687 9.28639315,17.5184207 9.68699217,18.1691086 L9.75684558,18.2957433 C10.1006017,18.9955703 9.84914979,19.8329636 9.19846183,20.2335626 L9.07182713,20.303416 L1.47357713,24.0356888 C0.427428388,24.5495587 -0.760505071,23.7278713 -0.685192207,22.5964494 L-0.671554183,22.4695134 L2.54594582,0.752077006 C2.66021278,-0.0192005678 3.34258208,-0.565852031 4.10567325,-0.526276005 Z" id="Stroke-2" fill="#717791" fill-rule="nonzero"></path>
                        </g>
                        <path d="M-0.171248252,11.0628887 L0.10019647,10.7324563 C4.08083364,6.01514681 10.0673466,4.51356101 26.1399195,6.01937105 C26.9647347,6.09664648 27.5707353,6.82793537 27.4934599,7.65275051 C27.4161845,8.47756564 26.6848956,9.08356631 25.8600805,9.00629089 L24.8170821,8.91137562 C10.1003461,7.61302198 5.3339388,8.9842234 2.17124825,12.9371113 C1.65369599,13.5839738 0.709751278,13.6888005 0.0628887299,13.1712483 C-0.583973818,12.653696 -0.688800515,11.7097513 -0.171248252,11.0628887 Z" id="Stroke-14" fill="#FFDBE4" fill-rule="nonzero"></path>
                        <path d="M-1.15403054,4.04176542 C2.24634591,-0.0534095677 7.22276245,-2.07413377 12.2130539,-1.35807338 C13.033082,-1.24040697 13.6024587,-0.480255368 13.4847923,0.339772753 C13.3671259,1.15980087 12.6069742,1.72917754 11.7869461,1.61151113 C7.85011032,1.04661182 3.90073593,2.65029519 1.15403054,5.95823458 C0.624812197,6.59558805 -0.32088111,6.68324889 -0.958234579,6.15403054 C-1.59558805,5.6248122 -1.68324889,4.67911889 -1.15403054,4.04176542 Z" id="Stroke-16" fill="#FFDBE4" fill-rule="nonzero"></path>
                    </g>
                    <g id="Group-18" opacity="0.300000012" transform="translate(99.976600, 104.500000) scale(1, -1) rotate(-270.000000) translate(-99.976600, -104.500000) translate(48.476600, 5.500000)" fill="#7282C4" fill-rule="nonzero">
                        <path d="M74.6530819,-1.24657504 C70.2112486,0.632732222 65.9995548,2.9560085 62.0284139,5.69489103 C61.1191358,6.32201708 60.8904063,7.56751875 61.5175324,8.47679687 C62.1446585,9.38607498 63.3901601,9.61480442 64.2994382,8.98767837 C68.0492409,6.40145207 72.0226015,4.20964636 76.2116912,2.43727311 C77.2289578,2.00687506 77.7047087,0.833310992 77.2743106,-0.183955586 C76.8439126,-1.20122216 75.6703485,-1.6769731 74.6530819,-1.24657504 Z M51.0312891,14.9480389 C47.7160018,18.3064311 44.6555288,21.9932646 41.8646051,25.9630089 C41.2293286,26.8666114 41.4468497,28.1141193 42.3504522,28.7493959 C43.2540547,29.3846725 44.5015626,29.1671513 45.1368392,28.2635489 C47.8025003,24.4719751 50.7213193,20.9557867 53.8779255,17.7581388 C54.6539132,16.9720618 54.6457342,15.7057583 53.8596573,14.9297706 C53.0735803,14.153783 51.8072768,14.1619619 51.0312891,14.9480389 Z M34.5390592,38.2386382 C32.4036387,42.4854362 30.5549379,46.8986012 29.0129276,51.3962026 C28.654694,52.4410674 29.2113185,53.5785034 30.2561833,53.9367371 C31.301048,54.2949707 32.4384841,53.7383462 32.7967177,52.6934814 C34.2806565,48.3652577 36.0594148,44.1190577 38.1127124,40.0355808 C38.6089244,39.0487437 38.2111942,37.8464949 37.2243571,37.3502829 C36.23752,36.8540709 35.0352712,37.2518011 34.5390592,38.2386382 Z M25.316274,65.1473409 C24.3539516,70.0668409 23.8031108,74.8730847 23.6765784,79.3835771 C23.6456042,80.4877123 24.515573,81.4079002 25.6197082,81.4388744 C26.7238433,81.4698486 27.6440312,80.5998798 27.6750054,79.4957446 C27.7952236,75.2103356 28.3209826,70.6229372 29.241873,65.9152426 C29.4539232,64.8312184 28.7470485,63.7805425 27.6630243,63.5684923 C26.5790001,63.3564421 25.5283242,64.0633167 25.316274,65.1473409 Z M25.0619884,93.9119047 C25.5873727,95.9428002 26.2563018,97.773609 27.0657767,99.3776564 C28.5078279,102.235211 30.0789823,104.778422 31.7630329,106.994315 C32.4313824,107.873737 33.686099,108.044845 34.5655208,107.376495 C35.4449426,106.708146 35.6160505,105.453429 34.947701,104.574007 C33.4154466,102.55785 31.9721251,100.22156 30.6368255,97.5755436 C29.9626698,96.2396433 29.3912891,94.6758174 28.9345055,92.9101006 C28.6578649,91.8407346 27.566711,91.1981036 26.4973449,91.4747441 C25.4279788,91.7513847 24.7853478,92.8425387 25.0619884,93.9119047 Z M43.4239187,116.344321 C48.6609956,118.323073 54.0473891,117.754587 58.7334247,114.804408 C59.6681344,114.21592 59.9488736,112.981093 59.3603856,112.046344 C58.7718976,111.111634 57.53707,110.830895 56.602321,111.419383 C52.9707839,113.705683 48.8957338,114.135768 44.8377088,112.602504 C43.8044345,112.212096 42.6503124,112.733243 42.2599051,113.766517 C41.8694977,114.799792 42.3906444,115.953914 43.4239187,116.344321 Z M68.1780957,103.194963 C70.0041231,99.090559 71.2017077,94.3071894 71.693752,89.0215777 C71.7961351,87.9217634 70.9875574,86.9471899 69.8877431,86.8448068 C68.7879288,86.7424237 67.8133553,87.5510014 67.7109722,88.6508157 C67.2580655,93.516005 66.1664874,97.8759657 64.5234604,101.569035 C64.0744729,102.578235 64.5286145,103.760329 65.5378141,104.209316 C66.5470138,104.658304 67.7291081,104.204162 68.1780957,103.194963 Z M71.3655235,74.4520265 C70.6241916,69.188915 67.5977123,64.8542102 62.785673,61.7570253 C61.8568607,61.1592114 60.6192856,61.4275388 60.0214718,62.3563511 C59.423658,63.2851635 59.6919853,64.5227385 60.6207977,65.1205524 C64.4991801,67.6168054 66.8343692,70.961403 67.4046225,75.0099364 C67.558685,76.103709 68.5702553,76.8654945 69.6640279,76.7114319 C70.7578005,76.5573694 71.519586,75.5457991 71.3655235,74.4520265 Z M48.781323,56.9994302 C44.1419005,56.3957513 39.1725756,56.4824067 34.2495572,57.256127 C33.1583818,57.4276203 32.4128321,58.4512155 32.5843254,59.5423909 C32.7558186,60.6335664 33.7794139,61.3791161 34.8705893,61.2076228 C39.4226124,60.4922096 44.0093623,60.4122255 48.2651963,60.9659921 C49.3605322,61.1085165 50.3640162,60.3361103 50.5065406,59.2407744 C50.6490651,58.1454386 49.8766588,57.1419546 48.781323,56.9994302 Z M20.3580273,61.4551933 C15.7272106,63.6249067 11.6514928,66.4530696 8.34523111,69.865633 C7.57663606,70.6589396 7.59666876,71.9251111 8.3899754,72.6937062 C9.18328205,73.4623012 10.4494535,73.4422685 11.2180486,72.6489619 C14.1734042,69.5985867 17.8490601,67.048029 22.0551331,65.0773241 C23.0553569,64.6086813 23.4862884,63.4179296 23.0176456,62.4177058 C22.5490028,61.417482 21.3582511,60.9865505 20.3580273,61.4551933 Z M0.955099529,82.9597412 C0.142090933,87.355644 -0.446883472,92.1336134 -0.767840608,97.0930088 C-0.839175789,98.1952724 -0.0034431697,99.1466622 1.09882044,99.2179974 C2.20108406,99.2893326 3.15247385,98.4536 3.22380904,97.3513364 C3.53467388,92.547886 4.10434255,87.9265316 4.88839526,83.687192 C5.08927526,82.6010424 4.37162244,81.5576987 3.28547281,81.3568187 C2.19932319,81.1559387 1.15597953,81.8735915 0.955099529,82.9597412 Z M-0.936808995,111.299202 C-0.742713801,116.060793 -0.2950262,120.799071 0.417026709,125.454003 C0.584047087,126.545872 1.60457859,127.29561 2.69644762,127.128589 C3.78831664,126.961569 4.53805461,125.941037 4.37103423,124.849168 C3.6818074,120.343458 3.2480428,115.75254 3.05987195,111.136286 C3.01488411,110.032633 2.08372675,109.174416 0.980073779,109.219403 C-0.123579189,109.264391 -0.981796839,110.195549 -0.936808995,111.299202 Z M3.43656216,139.387724 C4.7707312,144.060017 6.4033109,148.546502 8.34234326,152.813893 C8.7992825,153.819517 9.98492454,154.264314 10.9905489,153.807375 C11.9961732,153.350436 12.4409704,152.164794 11.9840311,151.159169 C10.1287792,147.076162 8.56382437,142.775516 7.28282572,138.289427 C6.97953934,137.227311 5.87266173,136.612157 4.81054537,136.915444 C3.74842902,137.21873 3.13327578,138.325608 3.43656216,139.387724 Z M15.348143,165.306704 C18.0786132,169.300776 21.1486336,172.991037 24.564809,176.353015 C25.3520777,177.127793 26.6183671,177.117668 27.3931458,176.3304 C28.1679244,175.543131 28.1577992,174.276841 27.3705306,173.502063 C24.1411778,170.323944 21.2367607,166.832743 18.6502641,163.049272 C18.0268916,162.137417 16.7823434,161.903555 15.8704878,162.526928 C14.9586323,163.1503 14.7247705,164.394848 15.348143,165.306704 Z M35.790838,185.382955 C39.721318,187.947482 43.96084,190.17926 48.5130787,192.063838 C49.5336488,192.486343 50.7034923,192.001515 51.1259973,190.980945 C51.5485022,189.960375 51.0636747,188.790532 50.0431046,188.368027 C45.7187637,186.577796 41.6988384,184.461619 37.9766089,182.03297 C37.0515358,181.429386 35.8123145,181.690004 35.2087305,182.615077 C34.6051465,183.54015 34.8657649,184.779371 35.790838,185.382955 Z M62.1540686,196.43848 C66.6114522,197.495711 71.2995233,198.279817 76.2209079,198.783885 C77.3197287,198.89643 78.3017352,198.096896 78.4142808,196.998076 C78.5268263,195.899255 77.7272922,194.917248 76.6284714,194.804703 C71.8783937,194.318181 67.3624749,193.562868 63.0772031,192.54646 C62.0024513,192.291543 60.9245422,192.956151 60.6696256,194.030903 C60.4147091,195.105655 61.0793168,196.183564 62.1540686,196.43848 Z M90.3887328,199.458413 C94.247229,199.446155 98.226002,199.284956 102.326111,198.972563 C103.427489,198.888648 104.252305,197.927778 104.168389,196.826401 C104.084474,195.725023 103.123604,194.900207 102.022227,194.984123 C98.0178616,195.289221 94.1361554,195.446488 90.3760364,195.458423 C89.2714725,195.461929 88.3788887,196.360197 88.3823844,197.464761 C88.3859007,198.569325 89.2841688,199.461909 90.3887328,199.458413 Z" id="Stroke-12"></path>
                    </g>
                </g>
            </g>
        </g>
    </g>
</svg>