<?xml version="1.0" encoding="UTF-8"?>
<svg width="238px" height="206px" viewBox="0 0 238 206" version="1.1" xmlns="http://www.w3.org/2000/svg" xmlns:xlink="http://www.w3.org/1999/xlink">
    <!-- Generator: Sketch 63.1 (92452) - https://sketch.com -->
    <title>image-popup-newsletter</title>
    <desc>Created with Sketch.</desc>
    <defs>
        <polygon id="path-1" points="0.635270936 0.383296223 25.6592036 0.383296223 25.6592036 23.632262 0.635270936 23.632262"></polygon>
        <polygon id="path-3" points="0.635270936 0.695356943 25.1090074 0.695356943 25.1090074 12.8227489 0.635270936 12.8227489"></polygon>
        <polygon id="path-5" points="0.635270936 0.275880708 2.7483867 0.275880708 2.7483867 5.39075489 0.635270936 5.39075489"></polygon>
    </defs>
    <g id="Assets" stroke="none" stroke-width="1" fill="none" fill-rule="evenodd">
        <g transform="translate(-45.000000, -40.000000)" id="image-popup-newsletter">
            <g transform="translate(46.000000, 41.000000)">
                <g id="Group-3" transform="translate(76.748768, 120.677340)">
                    <polyline id="Fill-1" fill="#E5EEFD" points="0.111682175 22.5043799 0.111682175 0.599927956 19.6699015 0.599927956 19.6699015 44.7966151 0.111682175 44.7966151 0.111682175 32.7147432"></polyline>
                    <path d="M19.6699015,-0.650072044 C20.3171102,-0.650072044 20.8494354,-0.15819738 20.9134479,0.472122717 L20.9199015,0.599927956 L20.9199015,44.7966151 C20.9199015,45.4438238 20.4280268,45.976149 19.7977067,46.0401615 L19.6699015,46.0466151 L0.111682175,46.0466151 C-0.535526516,46.0466151 -1.06785172,45.5547405 -1.13186422,44.9244204 L-1.13831783,44.7966151 L-1.13831783,32.7147432 C-1.13831783,32.0243873 -0.578673763,31.4647432 0.111682175,31.4647432 C0.758890866,31.4647432 1.29121607,31.9566179 1.35522857,32.586938 L1.36168217,32.7147432 L1.361,43.546 L18.419,43.546 L18.419,1.849 L1.361,1.849 L1.36168217,22.5043799 C1.36168217,23.1515886 0.86980751,23.6839138 0.239487413,23.7479263 L0.111682175,23.7543799 C-0.535526516,23.7543799 -1.06785172,23.2625053 -1.13186422,22.6321852 L-1.13831783,22.5043799 L-1.13831783,0.599927956 C-1.13831783,-0.0472807355 -0.646443161,-0.579605943 -0.0161230639,-0.643618435 L0.111682175,-0.650072044 L19.6699015,-0.650072044 Z" id="Stroke-2" fill="#717791" fill-rule="nonzero"></path>
                </g>
                <g id="Group-145" transform="translate(0.000000, 0.504926)">
                    <polygon id="Fill-4" fill="#3F72BA" opacity="0.300000012" points="96.3087451 120.416522 96.3087451 131.488106 76.5272728 127.112555 76.5272728 120.418797"></polygon>
                    <g id="Group-9" transform="translate(174.769376, 12.133243)">
                        <path d="M7.73713862,5.327707 L0.316627635,25.155701 C-0.0767926045,26.2090182 0.455081297,27.3821511 1.50521071,27.7772398 L38.9383899,41.8502851 C39.9877628,42.2461321 41.158188,41.7130277 41.5523648,40.6612272 C41.5523648,40.6604689 41.5531214,40.6597106 41.5531214,40.6589523 L50.2893204,17.3145927 C50.6834973,16.2620339 50.1523799,15.088901 49.1030071,14.6945706 C49.1022505,14.6938123 49.1014939,14.6938123 49.1007374,14.6938123 L11.6683147,0.620008717 C11.3853548,0.512326185 11.0819672,0.470618163 10.7800929,0.497159632" id="Fill-6" fill="#FFFFFF"></path>
                        <path d="M10.6925085,-0.498997475 C11.0696296,-0.532154807 11.4483998,-0.494054039 11.8073913,-0.38787224 L12.0202414,-0.316018854 L49.452664,13.7577847 L49.451,13.761 C50.9653135,14.3261093 51.7557532,15.9730134 51.2835739,17.4963906 L51.225886,17.6650852 L42.489,41.009 L42.4683659,41.0741096 L42.454,41.097 L42.4213696,41.1773269 C41.7998587,42.5826479 40.2196449,43.3017013 38.7549193,42.8443421 L38.5864861,42.7863212 L1.15307932,28.7131904 C-0.357583912,28.1448357 -1.14871583,26.4986002 -0.677512379,24.974033 L-0.619934068,24.8051983 L6.80057692,4.97720425 C6.99415424,4.4599555 7.57039262,4.19756797 8.08764137,4.39114529 C8.56794378,4.57089567 8.8284934,5.08059358 8.70827541,5.56662878 L8.67370032,5.67820975 L1.25341615,25.5055971 C1.06707537,26.0044935 1.28740571,26.5554506 1.7469065,26.7922909 L1.85711454,26.8412037 L39.2913358,40.9146413 C39.7844146,41.1006417 40.3311505,40.8811525 40.5671768,40.4207468 L40.616,40.307 L40.6368178,40.2466847 L40.644,40.233 L49.3528355,16.9638849 C49.5393503,16.4658399 49.3196516,15.9156095 48.8612035,15.6794234 L48.7488107,15.6298398 L11.3126417,1.55461917 C11.206796,1.5143388 11.094948,1.49247712 10.9814981,1.48970324 L10.8676772,1.49331674 C10.3175148,1.54168824 9.83230726,1.13490637 9.78393575,0.584743988 C9.73556425,0.0345816098 10.1423461,-0.45062597 10.6925085,-0.498997475 Z" id="Stroke-8" fill="#717791" fill-rule="nonzero"></path>
                    </g>
                    <path d="M184.632015,11.853528 C185.068342,11.5840477 185.630808,11.6903937 185.941292,12.0831813 L186.008297,12.1788687 L198.00043,31.5960483 C199.011813,33.2911451 201.01928,34.0944583 202.916921,33.5810875 L203.127261,33.5186062 L224.592875,26.915847 C225.120751,26.7534739 225.680309,27.0497727 225.842682,27.577649 C225.993457,28.0678198 225.748745,28.5853079 225.290369,28.7867389 L225.18088,28.8274562 L203.729439,35.4257404 C200.981055,36.3160565 197.990958,35.2460756 196.428886,32.8549007 L184.306674,13.2298105 C184.016465,12.7599202 184.162125,12.1437376 184.632015,11.853528 Z" id="Stroke-10" fill="#717791" fill-rule="nonzero"></path>
                    <path d="M203.915745,33.9234834 C204.395413,33.7420456 204.927326,33.9535799 205.15731,34.3983157 L205.204862,34.505014 L209.543077,45.9739619 C209.738471,46.4905269 209.478111,47.0676842 208.961546,47.2630787 C208.481879,47.4445165 207.949966,47.2329822 207.719982,46.7882465 L207.67243,46.6815482 L203.334215,35.2126002 C203.13882,34.6960352 203.39918,34.118878 203.915745,33.9234834 Z" id="Stroke-12" fill="#717791" fill-rule="nonzero"></path>
                    <path d="M192.369298,32.5635328 C192.85615,32.3027775 193.462206,32.4860654 193.722961,32.9729177 C193.965091,33.4249948 193.824347,33.9798544 193.413204,34.2655888 L193.313576,34.3265808 L185.683493,38.4132088 C185.196641,38.673964 184.590585,38.4906761 184.32983,38.0038238 C184.0877,37.5517467 184.228444,36.9968871 184.639587,36.7111527 L184.739215,36.6501607 L192.369298,32.5635328 Z" id="Stroke-14" fill="#717791" fill-rule="nonzero"></path>
                    <g id="Group-19" transform="translate(164.177292, 67.491164)">
                        <path d="M1.40927669,17.0851228 L7.781928,32.3434342 C8.12163125,33.1525698 9.05070827,33.5340086 9.85873292,33.1957945 L38.6639037,21.1088095 C39.4711717,20.7690787 39.8517302,19.8378523 39.5150532,19.0279583 L32.0113187,1.06393374 C31.6716155,0.254798103 30.743295,-0.126640724 29.9352704,0.211573425 L1.13009964,12.2978001 C0.911448775,12.3887994 0.71625181,12.5283317 0.558883714,12.7050221" id="Fill-16" fill="#FFFFFF"></path>
                        <path d="M29.5491602,-0.710879244 C30.8139344,-1.24027464 32.2594121,-0.688614641 32.8630568,0.523566559 L32.9340538,0.678499003 L40.4384451,18.6440997 C40.9644285,19.9093803 40.4145213,21.3562115 39.205378,21.9599211 L39.0508317,22.0309194 L10.2448431,34.1182472 C8.98007054,34.6476419 7.53389454,34.0959836 6.93017678,32.8837613 L6.85917392,32.7288235 L0.486522617,17.4705121 C0.273677983,16.9608891 0.514264387,16.3752133 1.02388739,16.1623687 C1.49710875,15.9647273 2.0359062,16.1580544 2.28087819,16.5947137 L2.33203077,16.6997335 L8.7039645,31.9563312 C8.8176146,32.2270332 9.10754596,32.3684442 9.38138506,32.3031947 L9.47180487,32.2736846 L38.276013,20.1871041 C38.5453028,20.0737761 38.6872629,19.7811409 38.6218957,19.5046796 L38.5923181,19.4133931 L31.0892822,1.45103669 C30.9755775,1.18020466 30.6861854,1.03894678 30.4125452,1.10419039 L30.3221778,1.13369199 L1.51433649,13.2210347 C1.46153354,13.2430105 1.41215612,13.2730049 1.36792173,13.3098523 L1.30564209,13.3701175 C0.938320032,13.7825408 0.306211553,13.8191025 -0.106211711,13.4517804 C-0.518634975,13.0844584 -0.555196725,12.4523499 -0.187874665,12.0399266 C0.0266478958,11.7990642 0.284037139,11.600807 0.569016216,11.4560376 L0.743192228,11.3756815 L29.5491602,-0.710879244 Z" id="Stroke-18" fill="#717791" fill-rule="nonzero"></path>
                    </g>
                    <path d="M194.380121,67.2565254 C194.652984,66.7763545 195.263439,66.6082985 195.74361,66.8811618 C196.189483,67.1345348 196.366236,67.6789944 196.170742,68.1399333 L196.118974,68.2446507 L187.446102,83.5064986 C186.315573,85.5675856 183.954172,86.6077413 181.700247,86.0754966 L181.475262,86.0170104 L164.294146,81.4139613 C163.760675,81.2710374 163.444075,80.722711 163.586999,80.1892402 C163.719714,79.6938743 164.201985,79.3855036 164.69733,79.4584109 L164.81172,79.4820923 L182.007211,84.0891079 C183.381737,84.4794211 184.839981,83.9107149 185.600587,82.7004963 L185.699909,82.53152 L194.380121,67.2565254 Z" id="Stroke-20" fill="#717791" fill-rule="nonzero"></path>
                    <path d="M186.357444,82.3503688 C186.582343,81.8894772 187.11464,81.6789115 187.586937,81.8451001 L187.694696,81.8901968 L196.288658,86.0837489 C196.785003,86.3259478 196.991029,86.9246557 196.74883,87.4210005 C196.523931,87.8818921 195.991634,88.0924578 195.519338,87.9262692 L195.411579,87.8811724 L186.817616,83.6876203 C186.321271,83.4454215 186.115245,82.8467136 186.357444,82.3503688 Z" id="Stroke-22" fill="#717791" fill-rule="nonzero"></path>
                    <path d="M179.054974,87.7999402 C179.230833,87.2764019 179.797805,86.9945516 180.321344,87.1704098 C180.807486,87.3337068 181.085235,87.8342403 180.981631,88.324086 L180.950874,88.4367793 L178.794629,94.8560231 C178.61877,95.3795614 178.051797,95.6614117 177.528259,95.4855535 C177.042116,95.3222565 176.764368,94.821723 176.867972,94.3318773 L176.898729,94.219184 L179.054974,87.7999402 Z" id="Stroke-24" fill="#717791" fill-rule="nonzero"></path>
                    <g id="Group-30" transform="translate(104.407679, 34.883074)" fill="#C9D7ED" fill-rule="nonzero">
                        <path d="M1.82287834,-1.32027399 C2.61437806,-1.43752932 3.35411448,-0.927826158 3.53845337,-0.164832369 L3.56511588,-0.0276331482 L4.18096987,4.12951923 C4.30512257,4.96757776 3.72638755,5.74760407 2.88832903,5.87175677 C2.09682931,5.9890121 1.35709289,5.47930893 1.172754,4.71631515 L1.14609149,4.57911593 L0.530237498,0.421963545 C0.406084799,-0.416094979 0.984819819,-1.1961213 1.82287834,-1.32027399 Z" id="Stroke-26"></path>
                        <path d="M4.20273291,0.449738273 C5.04070788,0.325022903 5.8211226,0.903234057 5.94583797,1.74120903 C6.06362471,2.53262984 5.55441835,3.27270833 4.7915485,3.45755948 L4.65436721,3.4843141 L0.506809994,4.10159284 C-0.331164981,4.22630821 -1.1115797,3.64809705 -1.23629507,2.81012208 C-1.35408181,2.01870127 -0.844875447,1.27862278 -0.0820056007,1.09377163 L0.0551756866,1.06701701 L4.20273291,0.449738273 Z" id="Stroke-28"></path>
                    </g>
                    <g id="Group-35" transform="translate(206.545626, 99.340927)" fill="#C9D7ED" fill-rule="nonzero">
                        <path d="M0.5430868,-0.750767801 C1.20519768,-1.19507274 2.08831218,-1.05502799 2.58348812,-0.450508225 L2.67163878,-0.33174697 L5.76150082,4.27281875 C6.23357481,4.97631155 6.0459728,5.92929674 5.34247999,6.40137073 C4.68036911,6.84567566 3.79725461,6.70563091 3.30207867,6.10111115 L3.21392801,5.9823499 L0.124065968,1.37778418 C-0.348008024,0.674291374 -0.160406008,-0.278693809 0.5430868,-0.750767801 Z" id="Stroke-31"></path>
                        <path d="M4.38271647,0.00491806083 C5.08519732,-0.468660483 6.03858183,-0.2830985 6.51216038,0.419382351 C6.95788136,1.0805408 6.819727,1.96395301 6.21626841,2.46042162 L6.09769609,2.54882626 L1.50375821,5.64583653 C0.801277359,6.11941508 -0.152107152,5.93385309 -0.625685697,5.23137224 C-1.07140668,4.57021379 -0.933252316,3.68680158 -0.329793728,3.19033297 L-0.211221407,3.10192833 L4.38271647,0.00491806083 Z" id="Stroke-33"></path>
                    </g>
                    <path d="M97.6745186,14.8446472 C96.4366481,14.8446472 95.4333173,15.8502992 95.4333173,17.0887628 C95.4333173,18.3272263 96.4366481,19.3328784 97.6745186,19.3328784 C98.9123891,19.3328784 99.9157199,18.3272263 99.9157199,17.0887628 C99.9157199,15.8502992 98.9123891,14.8446472 97.6745186,14.8446472 Z M97.6745186,16.8076472 C97.8272374,16.8076472 97.9527199,16.93342 97.9527199,17.0887628 C97.9527199,17.2441055 97.8272374,17.3698784 97.6745186,17.3698784 C97.5217998,17.3698784 97.3963173,17.2441055 97.3963173,17.0887628 C97.3963173,16.93342 97.5217998,16.8076472 97.6745186,16.8076472 Z" id="Stroke-36" fill="#9FC3FD" fill-rule="nonzero"></path>
                    <path d="M150.936734,42.134434 C149.463568,42.134434 148.270336,43.3304263 148.270336,44.8047297 C148.270336,46.2790332 149.463568,47.4750255 150.936734,47.4750255 C152.4099,47.4750255 153.603132,46.2790332 153.603132,44.8047297 C153.603132,43.3304263 152.4099,42.134434 150.936734,42.134434 Z M150.936734,44.097434 C151.324749,44.097434 151.640132,44.4135471 151.640132,44.8047297 C151.640132,45.1959124 151.324749,45.5120255 150.936734,45.5120255 C150.54872,45.5120255 150.233336,45.1959124 150.233336,44.8047297 C150.233336,44.4135471 150.54872,44.097434 150.936734,44.097434 Z" id="Stroke-38" fill="#9FC3FD" fill-rule="nonzero"></path>
                    <g id="Group-44" transform="translate(158.881251, 14.408226)" fill="#C9D7ED" fill-rule="nonzero">
                        <path d="M3.95925645,-0.269825674 C4.26583444,-0.83487276 4.97242617,-1.04440336 5.53747326,-0.737825377 C6.06485054,-0.451685923 6.28253346,0.182909949 6.05995469,0.725655209 L6.00547296,0.840391426 L2.58347345,7.1474028 C2.27689546,7.71244988 1.57030373,7.92198049 1.00525665,7.6154025 C0.477879367,7.32926305 0.260196445,6.69466718 0.482775212,6.15192192 L0.537256944,6.0371857 L3.95925645,-0.269825674 Z" id="Stroke-40"></path>
                        <path d="M-0.896967361,1.16666267 C-0.609805508,0.639841397 0.0252114021,0.423389789 0.567523912,0.647020883 L0.682154238,0.701725063 L6.97460834,4.13164119 C7.53905971,4.4393146 7.74721936,5.14631143 7.43954595,5.71076279 C7.1523841,6.23758406 6.51736719,6.45403567 5.97505468,6.23040458 L5.86042435,6.1757004 L-0.432029754,2.74578427 C-0.996481118,2.43811085 -1.20464077,1.73111403 -0.896967361,1.16666267 Z" id="Stroke-42"></path>
                    </g>
                    <path d="M127.292253,29.1440827 C125.849845,29.1440827 124.681677,30.3149531 124.681677,31.7580052 C124.681677,33.2010573 125.849845,34.3719277 127.292253,34.3719277 C128.734662,34.3719277 129.902829,33.2010573 129.902829,31.7580052 C129.902829,30.3149531 128.734662,29.1440827 127.292253,29.1440827 Z M127.292253,31.4720827 C127.447737,31.4720827 127.574829,31.5994693 127.574829,31.7580052 C127.574829,31.9165411 127.447737,32.0439277 127.292253,32.0439277 C127.13677,32.0439277 127.009677,31.9165411 127.009677,31.7580052 C127.009677,31.5994693 127.13677,31.4720827 127.292253,31.4720827 Z" id="Stroke-45" fill="#C9D7ED" fill-rule="nonzero"></path>
                    <path d="M226.343289,62.5352687 C225.001767,62.5352687 223.915213,63.6243368 223.915213,64.9666913 C223.915213,66.3090457 225.001767,67.3981138 226.343289,67.3981138 C227.684811,67.3981138 228.771365,66.3090457 228.771365,64.9666913 C228.771365,63.6243368 227.684811,62.5352687 226.343289,62.5352687 Z M226.343289,64.4982687 C226.599659,64.4982687 226.808365,64.7074576 226.808365,64.9666913 C226.808365,65.2259249 226.599659,65.4351138 226.343289,65.4351138 C226.086919,65.4351138 225.878213,65.2259249 225.878213,64.9666913 C225.878213,64.7074576 226.086919,64.4982687 226.343289,64.4982687 Z" id="Stroke-47" fill="#9FC3FD" fill-rule="nonzero"></path>
                    <path d="M140.196513,-0.57587052 C138.854991,-0.57587052 137.768437,0.513197563 137.768437,1.85555202 C137.768437,3.19790647 138.854991,4.28697455 140.196513,4.28697455 C141.538035,4.28697455 142.624589,3.19790647 142.624589,1.85555202 C142.624589,0.513197563 141.538035,-0.57587052 140.196513,-0.57587052 Z M140.196513,1.38712948 C140.452883,1.38712948 140.661589,1.5963184 140.661589,1.85555202 C140.661589,2.11478564 140.452883,2.32397455 140.196513,2.32397455 C139.940143,2.32397455 139.731437,2.11478564 139.731437,1.85555202 C139.731437,1.5963184 139.940143,1.38712948 140.196513,1.38712948 Z" id="Stroke-49" fill="#9FC3FD" fill-rule="nonzero"></path>
                    <path d="M224.57895,98.0425977 C223.237429,98.0425977 222.150875,99.1316658 222.150875,100.47402 C222.150875,101.816375 223.237429,102.905443 224.57895,102.905443 C225.920472,102.905443 227.007026,101.816375 227.007026,100.47402 C227.007026,99.1316658 225.920472,98.0425977 224.57895,98.0425977 Z M224.57895,100.005598 C224.83532,100.005598 225.044026,100.214787 225.044026,100.47402 C225.044026,100.733254 224.83532,100.942443 224.57895,100.942443 C224.322581,100.942443 224.113875,100.733254 224.113875,100.47402 C224.113875,100.214787 224.322581,100.005598 224.57895,100.005598 Z" id="Stroke-51" fill="#9FC3FD" fill-rule="nonzero"></path>
                    <path d="M38.6711613,77.8633595 L35.7356411,80.4272654 C35.4289482,80.6951333 35.3969526,81.1607062 35.6641177,81.4680114 L38.2221059,84.4103228 C38.4901373,84.7186244 38.9575496,84.7507464 39.2652369,84.48201 L42.2007571,81.9181041 C42.50745,81.6502362 42.5394456,81.1846634 42.2722804,80.8773582 L39.7142923,77.9350467 C39.4462609,77.6267451 38.9788486,77.5946231 38.6711613,77.8633595 Z M39.084,79.462 L40.674,81.29 L38.85,82.882 L37.262,81.054 L39.084,79.462 Z" id="Stroke-53" fill="#9FC3FD" fill-rule="nonzero"></path>
                    <path d="M199.510761,3.20857236 L197.919678,5.36677295 C197.678031,5.69455197 197.747321,6.1560829 198.074566,6.39845365 L200.227785,7.99321678 C200.556053,8.23634585 201.019344,8.16679162 201.261747,7.83798706 L202.852829,5.67978646 C203.094476,5.35200744 203.025186,4.89047652 202.697942,4.64810576 L200.544723,3.05334264 C200.216454,2.81021356 199.753164,2.8797678 199.510761,3.20857236 Z M200.26,4.681 L201.226,5.396 L200.511,6.365 L199.545,5.65 L200.26,4.681 Z" id="Stroke-55" fill="#9FC3FD" fill-rule="nonzero"></path>
                    <path d="M171.464797,113.324945 C171.431508,113.807999 171.406541,114.291054 171.385356,114.774109" id="Fill-57" fill="#93B9F4"></path>
                    <path d="M207.948623,167.575783 L207.972077,167.515117 C208.017472,167.622041 208.032603,167.674366 207.948623,167.575783 L207.948623,167.575783 Z M229.500486,190.341539 L229.500486,189.780376 L227.987332,189.780376 L218.441595,189.822842 L219.847316,183.970828 C218.985574,179.944108 217.880214,176.03872 215.424364,176.160053 L215.424364,176.10697 C215.415285,171.768577 212.358713,168.036088 208.11507,167.181453 L208.244445,166.870538 C208.297405,166.771956 208.342043,166.673373 208.39576,166.574791 L210.044342,161.653244 C211.25411,155.598756 209.703126,149.319802 205.815831,144.529446 L203.107284,141.769892 C194.998288,134.92826 183.03453,135.36809 175.446815,142.786809 C174.523791,142.490303 173.593201,142.224889 172.647479,141.982224 C171.350705,140.931181 169.738439,140.348786 168.070186,140.329069 C167.185747,132.602468 160.219939,127.056818 152.510415,127.943303 C145.415232,128.758505 140.059421,134.778869 140.060934,141.936724 C140.060178,143.043124 140.192579,144.146491 140.455111,145.221041 C140.234947,145.287774 140.023105,145.364365 139.81202,145.433373 C134.937392,143.179623 129.151088,144.832777 126.193627,149.323594 C125.685964,149.451751 125.172248,149.573842 124.665341,149.686833 C124.65021,149.611759 124.635078,149.535167 124.612381,149.459335 C124.498138,150.79475 124.392973,152.129406 124.279487,153.464821 C115.835326,149.187095 105.604131,150.832666 98.9190127,157.543866 C97.685035,158.833023 96.5811886,160.311762 95.0370142,161.206589 C93.4928397,162.099899 91.3086008,162.230331 90.0973204,160.919183 C91.0195883,155.550223 86.2009469,150.461844 80.858754,149.467676 C75.5165611,148.475025 73.6591636,149.294019 69.0213442,152.121823 C67.2479269,153.450413 65.557733,154.886686 63.9605981,156.423058 C56.0339369,159.835532 47.9831969,162.062741 41.3865987,167.589433 C39.8575558,168.86949 38.4011443,170.24358 36.7593714,171.375763 C34.7075336,172.789286 32.3916502,173.806962 30.4374108,175.353192 C27.8083044,177.434043 23.3354189,181.896801 22.6363414,185.18036 C22.006869,188.13708 22.173316,189.756868 24.6034426,191.549555 C26.6681423,193.071518 33.6422726,191.789944 36.1964778,191.587471 C37.5446987,191.480547 39.1592349,191.67847 40.5089689,191.549555 C40.2237393,192.051568 42.5252477,191.47448 42.2180772,191.959052 L229.197855,192.258591 L229.500486,190.655486 L230.325156,190.655486 L229.500486,190.341539 Z" id="Fill-59" fill="#FFFFFF"></path>
                    <path d="M160.569704,201.917079 C161.220848,201.917079 161.748704,202.444936 161.748704,203.096079 C161.748704,203.706527 161.284768,204.208616 160.69025,204.268992 L160.569704,204.275079 L101.058084,204.275079 C100.40694,204.275079 99.879084,203.747223 99.879084,203.096079 C99.879084,202.485632 100.34302,201.983543 100.937538,201.923166 L101.058084,201.917079 L160.569704,201.917079 Z" id="Stroke-61" fill="#717791" fill-rule="nonzero"></path>
                    <path d="M91.8215603,202.077079 C92.3843385,202.077079 92.8405603,202.533301 92.8405603,203.096079 C92.8405603,203.621339 92.4431404,204.053776 91.9325916,204.1091 L91.8215603,204.115079 L76.5719865,204.115079 C76.0092084,204.115079 75.5529865,203.658858 75.5529865,203.096079 C75.5529865,202.57082 75.9504065,202.138383 76.4609553,202.083059 L76.5719865,202.077079 L91.8215603,202.077079 Z" id="Stroke-63" fill="#717791" fill-rule="nonzero"></path>
                    <path d="M194.988381,172.845498 C197.057557,167.414356 203.130184,164.691847 208.550742,166.766891 C212.247697,168.182604 214.804226,171.541686 215.240463,175.417919 L215.251,175.532 L215.387744,175.574888 C219.308628,176.868357 221.82531,180.823928 221.229594,185.012367 L221.189219,185.269072 C220.971785,186.530575 220.478203,187.727903 219.743742,188.775167 C219.299784,189.408205 218.426706,189.561485 217.793668,189.117526 C217.16063,188.673568 217.00735,187.80049 217.451308,187.167452 C217.94844,186.458595 218.282635,185.647905 218.42991,184.79345 C218.979619,181.604497 216.846324,178.57357 213.668066,178.023673 C213.041671,177.915295 212.572908,177.400842 212.51319,176.778964 L212.506746,176.644169 L212.506746,176.595718 C212.504824,173.393337 210.532629,170.524115 207.549566,169.381781 C203.575993,167.860657 199.123312,169.856904 197.60492,173.842356 C197.329645,174.564893 196.520758,174.927471 195.798221,174.652196 C195.075684,174.376921 194.713106,173.568035 194.988381,172.845498 Z" id="Stroke-65" fill="#717791" fill-rule="nonzero"></path>
                    <path d="M234.879071,189.067368 C235.530214,189.067368 236.058071,189.595225 236.058071,190.246368 C236.058071,190.856816 235.594134,191.358905 234.999617,191.419281 L234.879071,191.425368 L217.842461,191.425368 C217.191317,191.425368 216.663461,190.897512 216.663461,190.246368 C216.663461,189.635921 217.127397,189.133832 217.721915,189.073455 L217.842461,189.067368 L234.879071,189.067368 Z" id="Stroke-67" fill="#717791" fill-rule="nonzero"></path>
                    <path d="M179.738279,176.681941 C180.514791,169.405014 187.031348,164.135699 194.29422,164.914391 C196.613309,165.162955 198.825423,166.021477 200.706364,167.403007 C201.329531,167.860717 201.463661,168.736941 201.005952,169.360109 C200.548242,169.983276 199.672018,170.117406 199.04885,169.659697 C197.566381,168.57084 195.823186,167.894306 193.995774,167.69844 C188.272388,167.084805 183.134993,171.238924 182.522472,176.979039 C182.440431,177.747873 181.750661,178.304628 180.981827,178.222587 C180.212993,178.140545 179.656238,177.450775 179.738279,176.681941 Z" id="Stroke-69" fill="#717791" fill-rule="nonzero"></path>
                    <path d="M181.052393,178.924539 C181.591236,178.842151 182.094843,179.212181 182.177231,179.751024 C182.41079,181.27857 182.969363,182.737684 183.815241,184.030285 C184.113727,184.486406 183.985938,185.098135 183.529818,185.39662 C183.073697,185.695105 182.461968,185.567317 182.163483,185.111196 C181.162903,183.582193 180.50217,181.856217 180.225908,180.049377 C180.14352,179.510534 180.51355,179.006927 181.052393,178.924539 Z" id="Stroke-71" fill="#717791" fill-rule="nonzero"></path>
                    <path d="M175.308095,175.623866 C177.325173,174.844063 179.555749,174.814911 181.593373,175.541176 C182.321692,175.800768 182.701669,176.601628 182.442077,177.329947 C182.182485,178.058265 181.381624,178.438243 180.653306,178.178651 C179.247518,177.67759 177.708836,177.697699 176.317751,178.235493 C175.59657,178.514301 174.785918,178.155688 174.507109,177.434507 C174.228301,176.713326 174.586914,175.902675 175.308095,175.623866 Z" id="Stroke-73" fill="#717791" fill-rule="nonzero"></path>
                    <path d="M171.935944,177.828202 C172.4895,177.235835 173.418453,177.204373 174.010819,177.757929 C174.603186,178.311485 174.634648,179.240439 174.081092,179.832805 C172.616767,181.399795 172.068808,183.616395 172.633967,185.688532 C172.847301,186.470716 172.386158,187.277742 171.603974,187.491076 C170.821791,187.70441 170.014765,187.243267 169.801431,186.461083 C168.968447,183.406972 169.77623,180.139335 171.935944,177.828202 Z" id="Stroke-75" fill="#717791" fill-rule="nonzero"></path>
                    <path d="M171.682885,187.612527 C172.295576,187.140885 173.174601,187.255229 173.646243,187.86792 C174.822554,189.39602 176.639696,190.290337 178.563928,190.288484 C179.337127,190.28774 179.964531,190.913938 179.965276,191.687136 C179.966019,192.460334 179.339822,193.087739 178.566623,193.088487 C175.772001,193.091173 173.134153,191.792942 171.427492,189.575885 C170.95585,188.963194 171.070194,188.084168 171.682885,187.612527 Z" id="Stroke-77" fill="#717791" fill-rule="nonzero"></path>
                    <path d="M175.799305,190.509556 C176.450448,190.509556 176.978305,191.037412 176.978305,191.688556 C176.978305,192.299003 176.514368,192.801092 175.91985,192.861469 L175.799305,192.867556 L97.0373291,192.867556 C96.3861854,192.867556 95.8583291,192.3397 95.8583291,191.688556 C95.8583291,191.078109 96.3222653,190.57602 96.9167832,190.515643 L97.0373291,190.509556 L175.799305,190.509556 Z" id="Stroke-79" fill="#717791" fill-rule="nonzero"></path>
                    <path d="M95.1080454,161.759198 C95.8837355,154.482044 102.398859,149.211468 109.66248,149.988454 C112.045095,150.24381 114.313055,151.142286 116.224432,152.588252 C116.84106,153.054734 116.962778,153.932769 116.496295,154.549397 C116.029813,155.166026 115.151779,155.287743 114.53515,154.821261 C113.028858,153.681743 111.241699,152.973741 109.364382,152.77254 C103.640534,152.160263 98.5041692,156.315457 97.8922729,162.055976 C97.81032,162.824819 97.1206135,163.381654 96.3517703,163.299701 C95.5829271,163.217748 95.0260925,162.528041 95.1080454,161.759198 Z" id="Stroke-81" fill="#717791" fill-rule="nonzero"></path>
                    <path d="M96.3634482,163.613881 C97.1277505,163.496927 97.8421497,164.021707 97.9591034,164.786009 C97.9914548,164.997429 98.0316298,165.211747 98.079564,165.430009 C98.2454195,166.18521 97.7676607,166.931873 97.01246,167.097729 C96.2572593,167.263584 95.5105958,166.785825 95.3447403,166.030625 C95.2841707,165.754829 95.2329452,165.48156 95.19132,165.209536 C95.0743662,164.445233 95.5991459,163.730834 96.3634482,163.613881 Z" id="Stroke-83" fill="#717791" fill-rule="nonzero"></path>
                    <path d="M90.6823376,160.703455 C92.7002805,159.925458 94.9294154,159.896087 96.9658944,160.621046 C97.6943144,160.880354 98.074605,161.681066 97.8152974,162.409486 C97.5559897,163.137906 96.7552782,163.518196 96.0268582,163.258889 C94.6214603,162.758586 93.0828351,162.778859 91.6895816,163.316013 C90.9681437,163.594155 90.1578234,163.234794 89.8796806,162.513356 C89.6015379,161.791918 89.9608996,160.981597 90.6823376,160.703455 Z" id="Stroke-85" fill="#717791" fill-rule="nonzero"></path>
                    <path d="M141.36654,147.897728 C141.940763,147.455336 142.749272,147.527878 143.236914,148.043361 L143.329999,148.152342 L143.481315,148.348749 C143.953199,148.961253 143.839205,149.840324 143.226701,150.312208 C142.652478,150.7546 141.843968,150.682059 141.356327,150.166575 L141.263242,150.057594 L141.111926,149.861187 C140.640042,149.248683 140.754036,148.369612 141.36654,147.897728 Z" id="Stroke-87" fill="#717791" fill-rule="nonzero"></path>
                    <path d="M122.20173,151.669003 C124.473345,145.281782 131.483271,141.949037 137.858173,144.226774 C138.926713,144.608359 139.936551,145.136337 140.858363,145.795932 C141.487168,146.245867 141.63217,147.120358 141.182235,147.749162 C140.7323,148.377966 139.857809,148.522968 139.229005,148.073033 C138.518831,147.564875 137.740482,147.157927 136.916289,146.8636 C131.999894,145.106985 126.593101,147.677548 124.839852,152.607251 C124.580762,153.335749 123.780164,153.716279 123.051667,153.457188 C122.323169,153.198098 121.94264,152.3975 122.20173,151.669003 Z" id="Stroke-89" fill="#717791" fill-rule="nonzero"></path>
                    <path d="M148.328556,127.553105 C156.531834,125.190426 165.0922,129.939565 167.448939,138.159289 C167.683134,138.977944 167.849849,139.812195 167.946902,140.653599 C168.035499,141.421705 167.484649,142.116201 166.716543,142.204799 C165.948438,142.293396 165.253942,141.742546 165.165344,140.97444 C165.085873,140.28546 164.949182,139.601448 164.757157,138.930203 C162.826893,132.197917 155.818397,128.309729 149.103663,130.243682 C142.388169,132.178734 138.507498,139.206082 140.43814,145.939688 C140.651244,146.68294 140.221473,147.458219 139.478222,147.671322 C138.73497,147.884425 137.959691,147.454655 137.746588,146.711403 C135.390468,138.493839 140.127189,129.916307 148.328556,127.553105 Z" id="Stroke-91" fill="#717791" fill-rule="nonzero"></path>
                    <path d="M166.56936,139.414407 C169.457772,139.445934 172.149402,140.886781 173.782011,143.274266 C174.218454,143.912508 174.054863,144.783713 173.41662,145.220156 C172.778378,145.656599 171.907173,145.493008 171.47073,144.854766 C170.353563,143.22105 168.513007,142.235788 166.5388,142.21424 C165.765647,142.205801 165.145725,141.572196 165.154078,140.799043 C165.162603,140.02589 165.796208,139.405968 166.56936,139.414407 Z" id="Stroke-93" fill="#717791" fill-rule="nonzero"></path>
                    <path d="M169.709495,146.427981 C176.125472,136.12915 189.657339,132.99341 199.934407,139.42468 C200.810771,139.973473 201.647776,140.583943 202.439534,141.251592 C202.995164,141.720126 203.065769,142.550374 202.597235,143.106004 C202.128701,143.661633 201.298453,143.732238 200.742824,143.263705 C200.045642,142.675807 199.308809,142.138398 198.537843,141.655606 C189.495571,135.997058 177.59,138.755936 171.943451,147.819693 C171.55914,148.436583 170.747506,148.625126 170.130616,148.240815 C169.513727,147.856504 169.325184,147.044871 169.709495,146.427981 Z" id="Stroke-95" fill="#717791" fill-rule="nonzero"></path>
                    <path d="M206.161932,165.232602 L206.205416,165.004821 C206.322853,164.240593 207.037583,163.716265 207.801812,163.833702 C208.56604,163.951139 209.090368,164.66587 208.972931,165.430098 C208.840759,166.290211 208.52319,167.111763 208.063147,167.804862 L208.040496,167.851222 C207.767799,168.574736 206.960211,168.940195 206.236697,168.667499 C205.513183,168.394802 205.147723,167.587214 205.42042,166.8637 C205.473872,166.72188 205.53759,166.5843 205.619937,166.438596 L205.708804,166.289728 C205.922485,165.967364 206.075891,165.60891 206.161932,165.232602 Z" id="Stroke-97" fill="#717791" fill-rule="nonzero"></path>
                    <path d="M203.540843,144.079874 C204.059227,143.659459 204.820275,143.738879 205.240689,144.257264 C209.352305,149.327014 210.992796,155.9709 209.71498,162.377168 C209.584422,163.03171 208.947973,163.456484 208.293431,163.325927 C207.638889,163.195369 207.214115,162.55892 207.344672,161.904378 C208.481836,156.203258 207.021933,150.29074 203.363453,145.77972 C202.943039,145.261336 203.022459,144.500289 203.540843,144.079874 Z" id="Stroke-99" fill="#717791" fill-rule="nonzero"></path>
                    <path d="M68.1987602,150.790232 C75.0945137,145.796451 84.7248317,147.350991 89.7063377,154.261659 C91.3114821,156.488538 92.2946025,159.103633 92.5541213,161.837385 C92.6271935,162.607123 92.0624344,163.290356 91.2926964,163.363428 C90.5229583,163.4365 89.8397256,162.871741 89.7666534,162.102003 C89.5541503,159.863511 88.7491494,157.722213 87.434929,155.898944 C83.3588774,150.244381 75.4820744,148.972896 69.8410533,153.058022 C69.2148203,153.511529 68.3395183,153.371507 67.8860115,152.745274 C67.4325048,152.119041 67.5725272,151.243739 68.1987602,150.790232 Z" id="Stroke-101" fill="#717791" fill-rule="nonzero"></path>
                    <path d="M66.1335311,152.955617 C66.4813063,152.494338 67.1371741,152.402326 67.5984526,152.750101 C68.0597312,153.097876 68.1517438,153.753744 67.8039685,154.215023 C67.7083517,154.341846 67.6191597,154.46479 67.534318,154.586948 C67.2047801,155.061427 66.5529956,155.178925 66.0785166,154.849387 C65.6040376,154.519849 65.4865396,153.868065 65.8160776,153.393586 C65.9168773,153.248451 66.0219809,153.103574 66.1335311,152.955617 Z" id="Stroke-103" fill="#717791" fill-rule="nonzero"></path>
                    <path d="M91.1617492,190.640072 C91.7667771,190.640072 92.2572492,191.130544 92.2572492,191.735572 C92.2572492,192.300265 91.8299935,192.765167 91.281116,192.824644 L91.1617492,192.831072 L86.9165935,192.831072 C86.3115655,192.831072 85.8210935,192.3406 85.8210935,191.735572 C85.8210935,191.17088 86.2483491,190.705978 86.7972267,190.646501 L86.9165935,190.640072 L91.1617492,190.640072 Z" id="Stroke-105" fill="#717791" fill-rule="nonzero"></path>
                    <path d="M67.3766963,190.640072 C67.9817243,190.640072 68.4721963,191.130544 68.4721963,191.735572 C68.4721963,192.300265 68.0449407,192.765167 67.4960631,192.824644 L67.3766963,192.831072 L0.0723287979,192.831072 C-0.532699146,192.831072 -1.0231712,192.3406 -1.0231712,191.735572 C-1.0231712,191.17088 -0.595915544,190.705978 -0.0470379964,190.646501 L0.0723287979,190.640072 L67.3766963,190.640072 Z" id="Stroke-107" fill="#717791" fill-rule="nonzero"></path>
                    <g id="Group-112" transform="translate(36.315714, 153.940520)">
                        <path d="M0.647176294,17.4839273 C1.36895112,7.44063543 10.0771568,-0.115341641 20.0972677,0.6088613 C23.380057,0.845459538 26.5372544,1.97081783 29.232183,3.86436206" id="Fill-109" fill="#FFFFFF"></path>
                        <path d="M-0.853952203,17.3760467 C-0.0726192694,6.5040206 9.35582609,-1.67640147 20.2054559,-0.892245062 C23.7601915,-0.636047023 27.1791004,0.582438233 30.0974181,2.63294284 C30.7775121,3.11079897 30.9414584,4.04950307 30.4636022,4.72959712 C29.9857461,5.40969118 29.047042,5.57363741 28.366948,5.09578128 C25.8949868,3.35890123 22.9994091,2.3269291 19.9887769,2.10994582 C10.7989749,1.44575341 2.81055662,8.37676173 2.14830479,17.591808 C2.08872396,18.4208583 1.36834603,19.0446366 0.539295654,18.9850558 C-0.289754723,18.925475 -0.913533036,18.2050971 -0.853952203,17.3760467 Z" id="Stroke-111" fill="#717791" fill-rule="nonzero"></path>
                    </g>
                    <g id="Group-116" transform="translate(21.940744, 170.623730)">
                        <path d="M0.573636973,15.0041199 C-1.10445167,8.8100994 2.54452106,2.4257386 8.72424513,0.743009468 C11.4297659,0.00667328364 14.3092994,0.278154596 16.8309718,1.50588712" id="Fill-113" fill="#FFFFFF"></path>
                        <path d="M0.573636973,15.0041199 C-1.10445167,8.8100994 2.54452106,2.4257386 8.72424513,0.743009468 C11.4297659,0.00667328364 14.3092994,0.278154596 16.8309718,1.50588712" id="Stroke-115" stroke="#717791" stroke-width="2.349" stroke-linecap="round" stroke-linejoin="round"></path>
                    </g>
                    <path d="M154.048764,81.6414829 L154.048764,80.3637008 C154.048764,67.0914496 143.314444,56.3322964 130.072827,56.3322964 L55.5499543,56.3322964 C42.3083369,56.3322964 31.5732604,67.0914496 31.5732604,80.3637008 L31.5732604,121.214813 L154.046494,121.214813 L154.046494,114.826661" id="Fill-117" fill="#FFFFFF"></path>
                    <polyline id="Stroke-119" stroke="#717791" stroke-width="2.5" stroke-linecap="round" stroke-linejoin="round" points="31.5752275 121.211856 154.048461 121.211856 154.048461 116.166702"></polyline>
                    <line x1="31.5752275" y1="87.9887615" x2="31.5752275" y2="115.385624" id="Stroke-121" stroke="#717791" stroke-width="2.5" stroke-linecap="round" stroke-linejoin="round"></line>
                    <path d="M154.048764,81.6414829 L154.048764,80.3637008 C154.048764,67.0914496 143.314444,56.3322964 130.072827,56.3322964 L55.5499543,56.3322964 C42.3083369,56.3322964 31.5732604,67.0914496 31.5732604,80.3637008 L31.5732604,82.25952" id="Stroke-123" stroke="#717791" stroke-width="2.5" stroke-linecap="round" stroke-linejoin="round"></path>
                    <g id="Group-128" transform="translate(113.486608, 56.116249)">
                        <path d="M40.4395151,49.222216 L40.4395151,20.341306 C40.4395151,9.22649713 31.4498627,0.216047558 20.3607079,0.216047558 L20.4144249,0.216047558 C9.32527021,0.216047558 0.33486115,9.22649713 0.33486115,20.341306 L0.33486115,65.0955311 L40.4395151,65.0955311 L40.4395151,60.0450687" id="Fill-125" fill="#B8D4FF"></path>
                        <path d="M40.4395151,49.222216 L40.4395151,20.341306 C40.4395151,9.22649713 31.4498627,0.216047558 20.3607079,0.216047558 L20.4144249,0.216047558 C9.32527021,0.216047558 0.33486115,9.22649713 0.33486115,20.341306 L0.33486115,65.0955311 L40.4395151,65.0955311 L40.4395151,60.0450687" id="Stroke-127" stroke="#717791" stroke-width="2.5" stroke-linecap="round" stroke-linejoin="round"></path>
                    </g>
                    <g id="Group-132" transform="translate(52.203840, 65.974509)">
                        <path d="M10.0013478,10.1286796 C7.76263528,12.3483047 4.15300458,12.3285882 1.93850257,10.0846966 C-0.27599943,7.84080495 -0.256328418,4.22206523 1.98238406,2.00319842 C4.22109654,-0.21718505 7.83148382,-0.196710202 10.0459858,2.04718142 C10.9788457,2.99281605 11.5538446,4.23571513 11.671114,5.56203025" id="Fill-129" fill="#E5EEFD"></path>
                        <path d="M10.0013478,10.1286796 C7.76263528,12.3483047 4.15300458,12.3285882 1.93850257,10.0846966 C-0.27599943,7.84080495 -0.256328418,4.22206523 1.98238406,2.00319842 C4.22109654,-0.21718505 7.83148382,-0.196710202 10.0459858,2.04718142 C10.9788457,2.99281605 11.5538446,4.23571513 11.671114,5.56203025" id="Stroke-131" stroke="#717791" stroke-width="2.5" stroke-linecap="round" stroke-linejoin="round"></path>
                    </g>
                    <path d="M74.6587536,37.9476274 C73.3642497,36.1814823 71.3071158,35.13954 69.1206072,35.1418113 L56.1831339,35.1418113 L56.1831339,71.224563 C56.1831339,72.344613 57.0895136,73.2530896 58.2069784,73.2530896 C59.3244432,73.2530896 60.2315795,72.344613 60.2315795,71.224563 L60.2315795,48.9236624 L69.1243901,48.9236624 C72.9208954,48.9244207 75.9986522,45.8395437 75.9994168,42.0342554 L75.9994168,42.0327387 C76.0009219,41.0393294 75.7875671,40.0580534 75.3737193,39.1556435" id="Fill-133" fill="#FFDBE4"></path>
                    <path d="M72.3601959,35.9522398 C71.3630269,35.4176188 70.249345,35.1385542 69.1190184,35.1400647 L56.1815451,35.1400647 L56.1815451,71.2228189 C56.1815451,72.3428688 57.0871682,73.2513454 58.2053896,73.2513454 C59.323611,73.2513454 60.2292341,72.3436272 60.2299907,71.2228189 L60.2299907,48.9219182 L69.1228013,48.9219182 C71.4159873,48.9234349 73.5593711,47.7768434 74.8349605,45.866616" id="Stroke-135" stroke="#717791" stroke-width="2.5" stroke-linecap="round" stroke-linejoin="round"></path>
                    <path d="M102.540219,121.211856 L166.990777,121.211856 C168.811102,121.211856 170.287184,119.732358 170.287184,117.907064 C170.286428,116.082527 168.811102,114.603788 166.990777,114.60303 L108.647312,114.60303" id="Fill-137" fill="#FFFFFF"></path>
                    <line x1="120.109156" y1="114.606897" x2="108.647009" y2="114.606897" id="Stroke-139" stroke="#717791" stroke-width="2.682" stroke-linecap="round" stroke-linejoin="round"></line>
                    <line x1="155.195433" y1="114.606897" x2="130.000649" y2="114.606897" id="Stroke-141" stroke="#717791" stroke-width="2.682" stroke-linecap="round" stroke-linejoin="round"></line>
                    <path d="M102.540219,121.211856 L166.990777,121.211856 C168.811102,121.211856 170.287184,119.732358 170.287184,117.907064 C170.286428,116.082527 168.811102,114.603788 166.990777,114.60303 L159.432569,114.60303" id="Stroke-143" stroke="#717791" stroke-width="2.5" stroke-linecap="round" stroke-linejoin="round"></path>
                </g>
                <g id="Group-164" transform="translate(114.113300, 74.224138)">
                    <g id="Group-149" transform="translate(0.000000, 4.585275)">
                        <mask id="mask-2" fill="white">
                            <use xlink:href="#path-1"></use>
                        </mask>
                        <g id="Clip-147"></g>
                        <path d="M-9.28381281,4.95408388 L-9.43658278,21.7201417 C-9.44415764,22.6104492 -8.72947783,23.3387437 -7.84070936,23.3463858 L23.8564089,23.632262 C24.7459409,23.6398434 25.473601,22.9245405 25.4812365,22.034233 L25.6592036,2.29538863 C25.6667783,1.40584529 24.9536256,0.677550792 24.0648571,0.669144455 L24.0625665,0.669144455 L-7.63302463,0.383296223 C-7.87354187,0.381800559 -8.11176847,0.433767008 -8.32937931,0.536171482" id="Fill-146" fill="#E5EEFD" mask="url(#mask-2)"></path>
                        <path d="M-7.62400645,-0.616714726 L24.0743151,-0.330810817 C25.4597535,-0.317706772 26.5820752,0.773625726 26.655444,2.1392627 L26.659163,2.30440435 L26.4811997,22.0428089 C26.4693055,23.4296904 25.378821,24.5549161 24.0126079,24.6284908 L23.8473902,24.6322213 L-7.8493076,24.3463489 C-9.23525471,24.3344317 -10.3593111,23.242839 -10.4328141,21.876285 L-10.4365413,21.7110302 L-10.2837713,4.94497239 C-10.2787392,4.39271057 -9.82696315,3.94909325 -9.27470133,3.95412539 C-8.76188677,3.95879808 -8.3427504,4.34867341 -8.28951918,4.84651777 L-8.28385432,4.96319536 L-8.43661898,21.7286495 C-8.43921078,22.0332763 -8.21976143,22.2876301 -7.93049127,22.3375643 L-7.83169073,22.3464265 L23.8649315,22.6322983 C24.1685388,22.6348859 24.4225417,22.415225 24.4724223,22.1245366 L24.4812771,22.0252173 L24.6592399,2.28687364 C24.6618336,1.98227839 24.4428755,1.72813256 24.1609477,1.6780646 L24.0535483,1.66910379 L-7.63924304,1.38328527 C-7.70065603,1.38289499 -7.76135947,1.39158585 -7.81921184,1.40881368 L-7.90358441,1.44099119 C-8.40330253,1.67615122 -8.99903898,1.46168451 -9.23419902,0.961966385 C-9.46935905,0.46224826 -9.25489234,-0.133488192 -8.75517421,-0.368648224 C-8.40263829,-0.534546469 -8.01682196,-0.619109767 -7.62400645,-0.616714726 Z" id="Stroke-148" fill="#717791" fill-rule="nonzero" mask="url(#mask-2)"></path>
                    </g>
                    <g id="Group-152" transform="translate(0.000000, 4.585275)">
                        <mask id="mask-4" fill="white">
                            <use xlink:href="#path-3"></use>
                        </mask>
                        <g id="Clip-151"></g>
                        <path d="M-9.38416158,0.0766628964 C-9.06875055,-0.323853336 -8.50875857,-0.418346642 -8.08320403,-0.161761558 L-7.97983551,-0.0902750805 L6.21900397,11.0916056 C7.35070519,12.0098498 8.94515006,12.0646838 10.1434047,11.2399285 L10.3042667,11.1220084 L24.5054736,0.372595508 C24.9458308,0.0392729767 25.5730222,0.126041786 25.9063448,0.566399067 C26.2140271,0.972882712 26.1637618,1.5385623 25.8078551,1.8853519 L25.7125412,1.96727029 L11.522712,12.7079419 C9.65328566,14.1656358 7.05192628,14.1914222 5.16914975,12.8074516 L4.97023945,12.6537755 L-9.2172236,1.48098897 C-9.65111619,1.13929368 -9.72585687,0.510555482 -9.38416158,0.0766628964 Z" id="Stroke-150" fill="#717791" fill-rule="nonzero" mask="url(#mask-4)"></path>
                    </g>
                    <path d="M10.9904026,15.8026356 C11.3764044,15.4696191 11.9441394,15.4836514 12.3129529,15.8166817 L12.4007918,15.9065688 L18.742048,23.2567646 C19.1028158,23.6749332 19.0562833,24.306386 18.6381147,24.6671538 C18.2521129,25.0001703 17.6843778,24.9861379 17.3155643,24.6531077 L17.2277254,24.5632205 L10.8864693,17.2130248 C10.5257014,16.7948562 10.5722339,16.1634034 10.9904026,15.8026356 Z" id="Stroke-153" fill="#717791" fill-rule="nonzero"></path>
                    <g id="Group-157" transform="translate(0.000000, 18.341100)">
                        <mask id="mask-6" fill="white">
                            <use xlink:href="#path-5"></use>
                        </mask>
                        <g id="Clip-156"></g>
                        <path d="M2.0030517,-0.390809424 C2.37125449,-0.80244658 3.00343968,-0.837657088 3.41507683,-0.469454295 C3.79504959,-0.129574794 3.85428012,0.435236451 3.57154268,0.843883139 L3.4937217,0.942570841 L-1.08145071,6.05744503 C-1.4496535,6.46908218 -2.08183869,6.50429269 -2.49347585,6.1360899 C-2.87344861,5.7962104 -2.93267913,5.23139915 -2.64994169,4.82275246 L-2.57212072,4.72406476 L2.0030517,-0.390809424 Z" id="Stroke-155" fill="#717791" fill-rule="nonzero" mask="url(#mask-6)"></path>
                    </g>
                    <path d="M25.0784655,0.281153774 C28.4625049,0.281153774 31.2059286,3.02696925 31.2059286,6.41395899 C31.2059286,9.80094874 28.4625049,12.5467642 25.0784655,12.5467642 C21.6944261,12.5467642 18.9510025,9.80094874 18.9510025,6.41395899 C18.9510025,3.02696925 21.6944261,0.281153774 25.0784655,0.281153774" id="Fill-158" fill="#F88BA6"></path>
                    <path d="M25.0784655,0.281153774 C28.4625049,0.281153774 31.2059286,3.02696925 31.2059286,6.41395899 C31.2059286,9.80094874 28.4625049,12.5467642 25.0784655,12.5467642 C21.6944261,12.5467642 18.9510025,9.80094874 18.9510025,6.41395899 C18.9510025,3.02696925 21.6944261,0.281153774 25.0784655,0.281153774 Z" id="Stroke-160" stroke="#717791" stroke-width="2" stroke-linecap="round" stroke-linejoin="round"></path>
                    <polygon id="Fill-162" fill="#FFFFFF" points="24.7492241 4.53988071 24.730899 4.53988071 23.6573522 5.08170736 23.4679926 4.24107363 24.8935345 3.53646971 25.8220074 3.53646971 25.8220074 9.4040932 24.7530419 9.4040932"></polygon>
                </g>
                <g id="Group-181" transform="translate(66.650246, 37.869458)">
                    <g id="Group-168" transform="translate(7.573892, 0.000000)">
                        <path d="M1.02285406,0.838985222 C0.983469828,0.767211823 0.943328202,0.695438424 0.902429187,0.625192118" id="Fill-165" fill="#FFBFBF"></path>
                        <path d="M0.147696803,-0.671102227 C0.863620401,-1.08792941 1.78189635,-0.845463864 2.19872353,-0.129540266 L2.33788237,0.117389386 C2.73640875,0.843659466 2.47071998,1.75548715 1.7444499,2.15401353 C1.01817982,2.5525399 0.106352132,2.28685114 -0.292174244,1.56058106 L-0.393865158,1.3799245 C-0.810692344,0.664000904 -0.568226795,-0.254275041 0.147696803,-0.671102227 Z" id="Stroke-167" fill="#717791" fill-rule="nonzero"></path>
                    </g>
                    <path d="M1.82450516,63.4613753 C0.461124056,63.4944979 -0.72148585,62.5147579 -0.952780315,61.1674013 L-0.976681615,60.9971137 L-0.983589901,60.8704852 L-0.983589901,45.7140813 L-0.976681615,45.5874528 C-0.819722837,44.153212 0.404316511,43.0886885 1.82450516,43.1231912 L1.919,43.128 L26.0505517,43.1283571 C26.6505539,43.1283571 27.1445253,43.5823285 27.2077215,44.1655265 L27.2145517,44.2923571 C27.2145517,44.8923593 26.7605804,45.3863308 26.1773823,45.4495269 L26.0505517,45.4563571 L1.89589655,45.4563571 L1.79597953,45.4520608 C1.59690477,45.434909 1.41517039,45.5627469 1.35536348,45.7547365 L1.344,45.807 L1.344,60.776 L1.35536348,60.82983 C1.40662655,60.9943925 1.54746898,61.1118231 1.71202835,61.1312152 L1.79597953,61.1325057 L1.89589655,61.1282094 L33.2001598,61.1324982 C33.3999166,61.1496935 33.5817824,61.0218626 33.6416148,60.8298444 L33.652,60.778 L33.6207673,48.2810119 C33.6192516,47.6810116 34.0719736,47.1858949 34.6550102,47.1212257 L34.7818231,47.1140751 C35.3818234,47.1125595 35.87694,47.5652815 35.9416093,48.148318 L35.9487598,48.275131 L35.9805702,60.8675448 L35.9736656,60.9971137 C35.8166892,62.4315159 34.5925315,63.4958345 33.2606158,63.465189 L33.10033,63.4562094 L1.91,63.456 L1.82450516,63.4613753 Z" id="Stroke-169" fill="#C9D7ED" fill-rule="nonzero"></path>
                    <path d="M1.82473165,63.4616043 C0.461317704,63.4947266 -0.721957381,62.5150048 -0.953306876,61.1676325 L-0.977211788,60.9973427 L-0.984120074,60.8707143 L-0.984120074,45.7143103 L-0.977211788,45.5876819 C-0.820250897,44.1534218 0.404508789,43.088918 1.82473165,43.1234204 L1.92,43.128 L21.2095474,43.1285862 C21.8095496,43.1285862 22.303521,43.5825575 22.3667172,44.1657556 L22.3735474,44.2925862 C22.3735474,44.8925884 21.9195761,45.3865598 21.336378,45.449756 L21.2095474,45.4565862 L1.89612377,45.4565862 L1.79620675,45.4522899 C1.59687978,45.4351164 1.41473073,45.5631894 1.35484505,45.7550466 L1.343,45.807 L1.343,60.777 L1.35484505,60.829978 C1.40617563,60.994427 1.54733237,61.1120142 1.71213899,61.1314397 L1.79620675,61.1327348 L1.89612377,61.1284384 L33.200387,61.1327272 C33.4001438,61.1499226 33.5820096,61.0220916 33.641842,60.8300735 L33.652,60.779 L33.6096339,44.2956174 C33.6080714,43.6956173 34.0607548,43.2004653 34.6437864,43.1357506 L34.7705988,43.1285902 C35.3705989,43.1270277 35.8657509,43.5797111 35.9304655,44.1627426 L35.937626,44.289555 L35.9807972,60.8676831 L35.9738928,60.9973427 C35.8169164,62.431745 34.5927587,63.4960636 33.260843,63.4654181 L33.1005573,63.4564384 L1.92,63.456 L1.82473165,63.4616043 Z" id="Stroke-171" fill="#C9D7ED" fill-rule="nonzero"></path>
                    <path d="M27.1021108,54.4453424 C27.7449703,54.4453424 28.2661108,54.9664829 28.2661108,55.6093424 C28.2661108,56.2093445 27.8121395,56.703316 27.2289415,56.7665122 L27.1021108,56.7733424 L7.7114335,56.7733424 C7.06857405,56.7733424 6.5474335,56.2522018 6.5474335,55.6093424 C6.5474335,55.0093402 7.00140482,54.5153687 7.58460287,54.4521726 L7.7114335,54.4453424 L27.1021108,54.4453424 Z" id="Stroke-173" fill="#C9D7ED" fill-rule="nonzero"></path>
                    <path d="M21.6246724,50.3073005 C22.2675319,50.3073005 22.7886724,50.828441 22.7886724,51.4713005 C22.7886724,52.0713026 22.3347011,52.5652741 21.751503,52.6284703 L21.6246724,52.6353005 L7.7114335,52.6353005 C7.06857405,52.6353005 6.5474335,52.1141599 6.5474335,51.4713005 C6.5474335,50.8712983 7.00140482,50.3773269 7.58460287,50.3141307 L7.7114335,50.3073005 L21.6246724,50.3073005 Z" id="Stroke-175" fill="#C9D7ED" fill-rule="nonzero"></path>
                    <path d="M26.6841078,50.3073005 C27.3269672,50.3073005 27.8481078,50.828441 27.8481078,51.4713005 C27.8481078,52.0713026 27.3941364,52.5652741 26.8109384,52.6284703 L26.6841078,52.6353005 L23.9431164,52.6353005 C23.3002569,52.6353005 22.7791164,52.1141599 22.7791164,51.4713005 C22.7791164,50.8712983 23.2330877,50.3773269 23.8162858,50.3141307 L23.9431164,50.3073005 L26.6841078,50.3073005 Z" id="Stroke-177" fill="#C9D7ED" fill-rule="nonzero"></path>
                    <path d="M104.729196,22.2167555 L101.476209,22.8344649 C101.076393,22.910386 100.813348,23.2954507 100.888019,23.6955024 L101.499989,26.9741723 C101.574978,27.3759328 101.962017,27.6403906 102.363559,27.5642362 L105.616545,26.9472904 C106.016431,26.87145 106.279569,26.4863594 106.204906,26.0862523 L105.592935,22.8068188 C105.517949,22.4049789 105.130796,22.1404957 104.729196,22.2167555 Z M104.276,23.805 L104.617,25.633 L102.815,25.975 L102.474,24.148 L104.276,23.805 Z" id="Stroke-179" fill="#9FC3FD" fill-rule="nonzero"></path>
                </g>
            </g>
        </g>
    </g>
</svg>